<svg width="230" height="40" viewBox="0 0 230 40" fill="none" xmlns="http://www.w3.org/2000/svg">
<path d="M7.75593 14.0909C7.21199 14.5776 6.69668 15.1502 6.20999 15.7227C6.7253 15.8372 7.21199 15.8945 7.75593 15.8945C8.29986 15.8945 8.81517 15.8372 9.30186 15.7227C8.8438 15.1215 8.32849 14.5776 7.75593 14.0909ZM1.14278 10.7986C1.68672 12.8313 3.14676 14.5203 5.06486 15.3505C5.63743 14.6635 6.26725 14.005 6.95433 13.4325C5.29389 12.1155 3.28991 11.1994 1.14278 10.7986ZM10.447 15.3505C12.3651 14.549 13.8251 12.8599 14.3691 10.7986C12.2506 11.1994 10.2466 12.1155 8.52889 13.4325C9.2446 14.005 9.87442 14.6348 10.447 15.3505ZM7.75593 2.23877C3.97698 2.23877 0.942383 5.302 0.942383 9.08094C0.942383 9.48174 0.971009 9.91116 1.05689 10.2833C3.4903 10.541 5.8092 11.4285 7.75593 12.8313C9.73128 11.4285 12.0215 10.541 14.4836 10.2833C14.5695 9.88254 14.5981 9.48174 14.5981 9.08094C14.5981 5.302 11.5349 2.23877 7.75593 2.23877ZM11.7639 8.07895C11.7639 8.22209 11.7353 8.36523 11.7353 8.50837C11.5921 7.33461 10.9623 6.30399 10.0176 5.64554C10.8478 7.16284 10.6188 9.08094 9.33049 10.3692C9.21597 10.4837 9.10146 10.5696 8.98694 10.6555C10.2466 9.08094 10.1607 6.79067 8.70066 5.33063C8.55752 5.18748 8.44301 5.07297 8.29986 4.95846C8.27124 4.95846 8.21398 4.95846 8.21398 4.95846V11.2567C8.21398 11.5143 8.01358 11.7148 7.75593 11.7148C7.49827 11.7148 7.3265 11.5143 7.3265 11.2567V4.95846C7.29787 4.95846 7.24061 4.95846 7.21199 4.95846C7.06884 5.07297 6.9257 5.18748 6.81119 5.33063C5.35115 6.79067 5.23663 9.08094 6.52491 10.6555C6.41039 10.5696 6.29588 10.4551 6.20999 10.3692C4.92172 9.08094 4.69269 7.16284 5.52292 5.64554C4.57818 6.27536 3.94836 7.30598 3.80522 8.50837C3.77659 8.36523 3.77659 8.22209 3.77659 8.07895C3.77659 6.27536 4.97898 4.72943 6.63942 4.24275C5.52291 4.04235 4.32053 4.30001 3.40442 5.04434C3.4903 4.92983 3.60482 4.81531 3.6907 4.72943C4.80721 3.61292 6.38176 3.29801 7.78455 3.75607C9.18734 3.29801 10.7619 3.61292 11.8784 4.72943C11.9643 4.84394 12.0788 4.95846 12.1647 5.04434C11.22 4.30001 10.0462 4.01373 8.92969 4.24275C10.5615 4.72943 11.7639 6.24673 11.7639 8.07895Z" fill="#AAACAF"/>
<path d="M30.1716 13.1747C29.9998 13.5755 29.7708 13.9477 29.4845 14.2913C28.9692 14.8352 28.1962 15.3791 26.8793 15.3791C24.8467 15.3791 23.3008 13.1175 23.3008 10.5982C23.3008 8.25067 24.8753 5.90315 27.366 5.90315C28.9119 5.90315 29.8853 6.9624 30.2002 6.9624C30.5724 6.9624 30.6296 6.3612 30.7728 6.13218H31.3167C31.2308 6.59023 31.2308 7.13417 31.2308 7.56359V13.0602C31.2308 13.6614 31.3167 14.7779 32.5764 14.8638H34.6949V15.3791H33.1776C31.6603 15.3791 30.4579 15.1787 30.1716 13.1747ZM27.3374 6.41846C25.5052 6.41846 24.6463 8.4797 24.6463 10.7127C24.6463 13.8905 26.1636 14.8352 27.137 14.8352C28.3107 14.8352 29.3127 14.0336 29.6849 12.8598C29.8853 12.1728 29.9426 11.4284 29.9426 10.2833C29.9426 8.4797 29.6563 6.41846 27.3374 6.41846ZM26.3354 3.69877C25.906 3.69877 25.5624 3.38386 25.5624 2.95443C25.5624 2.49638 25.8773 2.15283 26.3354 2.15283C26.7934 2.15283 27.1084 2.49638 27.1084 2.95443C27.1084 3.41248 26.7934 3.69877 26.3354 3.69877ZM29.0551 3.69877C28.597 3.69877 28.2821 3.38386 28.2821 2.95443C28.2821 2.49638 28.597 2.15283 29.0551 2.15283C29.4845 2.15283 29.828 2.49638 29.828 2.95443C29.828 3.41248 29.5131 3.69877 29.0551 3.69877Z" fill="#F2F6FF"/>
<path d="M34.4087 19.0433C33.9793 19.0433 33.6357 18.7284 33.6357 18.2703C33.6357 17.8409 33.9793 17.4973 34.4087 17.4973C34.8668 17.4973 35.1817 17.8409 35.1817 18.2703C35.1817 18.7284 34.8668 19.0433 34.4087 19.0433ZM41.3368 15.3788C39.8767 15.3788 38.9606 14.7776 38.2735 13.3749C38.0159 14.6631 36.9853 15.3788 35.5252 15.3788H34.2656V14.8635H35.153C36.4699 14.8349 37.0139 14.0619 37.0139 12.745V7.44879C37.0139 6.93348 36.9853 6.8476 36.2982 6.6472L38.3308 6.21777V11.4568C38.3308 12.8309 39.2469 14.8635 40.8787 14.8635H41.5085V15.3788H41.3368ZM37.157 19.0433C36.699 19.0433 36.3841 18.7284 36.3841 18.2703C36.3841 17.8409 36.7276 17.4973 37.157 17.4973C37.5865 17.4973 37.93 17.8409 37.93 18.2703C37.93 18.7284 37.5865 19.0433 37.157 19.0433Z" fill="#F2F6FF"/>
<path d="M41.1367 14.8638H41.3371C42.7113 14.8638 43.2838 14.0622 43.2838 12.7453V3.49837C43.2838 2.98306 43.2552 2.78266 42.5681 2.58226L44.6007 2.15283V12.7453C44.6007 14.463 43.4842 15.4078 41.7952 15.4078H41.1653V14.8638H41.1367Z" fill="#F2F6FF"/>
<path d="M48.2077 12.8596V3.58406C48.2077 3.01149 47.8928 2.78247 46.6904 2.78247V2.23854L49.5246 2.12402V12.9455C49.5246 14.1193 50.1258 14.7491 51.1565 14.835H52.0153V15.3503H51.0706C49.4101 15.3789 48.2077 14.7777 48.2077 12.8596Z" fill="#F2F6FF"/>
<path d="M64.726 15.3791C63.266 15.3791 62.493 14.7779 61.7487 13.6042C61.262 15.0642 59.9451 16.2952 57.8266 16.2952C55.9944 16.2952 55.0783 15.2074 54.4771 14.3485L54.3912 14.2626C53.8759 14.9497 53.3606 15.3791 52.2155 15.3791H51.6143V14.8638H52.2441C52.3872 14.8352 52.9312 14.7493 53.2174 14.463C55.2787 12.5449 53.79 7.67811 58.3705 7.67811C60.7467 7.67811 62.035 10.1688 62.035 12.0869C62.035 12.3445 62.0063 12.6022 61.9777 12.8312C62.3213 13.8905 63.1515 14.8638 64.2966 14.8638H64.7547C66.1288 14.8638 66.7014 14.0622 66.7014 12.7453V3.49837C66.7014 2.98306 66.6728 2.78266 65.9571 2.58226L67.9897 2.15283V12.7453C67.9897 14.463 66.8732 15.4078 65.1841 15.4078H64.726V15.3791ZM58.027 8.13616C55.6222 8.13616 55.8799 11.6288 54.7348 13.7759C54.8206 13.8332 54.8779 13.8905 54.9065 13.9477C55.4791 14.6062 56.3952 15.7513 57.9411 15.7513C59.4012 15.7513 60.6608 14.1481 60.6608 12.1727C60.6608 10.1115 59.802 8.19342 58.0843 8.13616H58.027Z" fill="#F2F6FF"/>
<path d="M70.9953 3.46955C70.9953 2.95424 70.9667 2.75385 70.251 2.55345L72.2836 2.12402V15.3789H70.9953V3.46955Z" fill="#F2F6FF"/>
<path d="M89.9193 12.1729C89.9193 15.5224 87.9439 19.0437 84.0505 19.0437C80.1284 19.0437 78.153 15.551 78.153 12.1729V9.22418C78.153 8.68025 77.8381 8.45122 76.6357 8.45122V7.90728L79.4699 7.79277V12.1729C79.4699 17.1256 81.7602 18.4711 84.0505 18.4711C86.0258 18.4711 88.0298 17.4405 88.4879 13.8906C87.9439 14.8067 87.1423 15.3793 85.6537 15.3793C84.3368 15.3793 82.7049 14.1483 82.7049 12.2015C82.7049 8.56573 85.167 6.24684 88.6024 6.24684H89.9193V12.1729ZM88.631 6.79078C88.4592 6.73352 88.2875 6.73352 88.1443 6.73352C86.1403 6.73352 84.0218 8.85201 84.0218 12.0584C84.0218 13.318 84.7376 14.864 86.1117 14.9212C87.5431 14.9212 88.631 13.3467 88.631 11.6576V6.79078ZM86.4553 3.92794C86.0258 3.92794 85.7109 3.61303 85.7109 3.1836C85.7109 2.72555 86.0258 2.41064 86.4553 2.41064C86.9133 2.41064 87.2568 2.75418 87.2568 3.1836C87.2568 3.61303 86.9133 3.92794 86.4553 3.92794ZM89.2036 3.92794C88.7455 3.92794 88.4306 3.61303 88.4306 3.1836C88.4306 2.72555 88.7455 2.41064 89.2036 2.41064C89.633 2.41064 89.9479 2.75418 89.9479 3.1836C89.9479 3.61303 89.633 3.92794 89.2036 3.92794Z" fill="#F2F6FF"/>
<path d="M102.43 15.379H99.4814C98.7943 18.5281 96.504 19.2725 94.8149 19.2725C94.5287 19.2725 94.2424 19.2438 93.4694 19.1866C95.3302 18.7858 97.4487 18.2132 98.1358 15.379H95.3875C94.0992 15.379 92.4102 14.148 92.4102 12.2013C92.4102 8.56547 94.8722 6.24658 98.3076 6.24658H99.6531V13.6327C99.6531 14.0907 99.5959 14.4915 99.5386 14.8637H102.401V15.379H102.43ZM98.3649 13.6899V6.79052C98.1931 6.73326 98.0213 6.73326 97.8782 6.73326C95.9028 6.73326 93.7557 8.85176 93.7557 12.0581C93.7557 13.3464 94.4714 14.7778 95.8742 14.8351H98.2503C98.3076 14.4915 98.3362 14.1194 98.3649 13.6899Z" fill="#F2F6FF"/>
<path d="M102.029 14.8638H102.23C103.604 14.8638 104.148 14.0622 104.148 12.7453V8.99504C104.148 8.47973 104.119 8.39383 103.432 8.19344L105.465 7.79264V11.4857C105.465 12.8312 106.381 14.8925 107.984 14.8925C109.387 14.8925 109.931 14.0909 109.931 12.774V8.22207C109.931 7.67813 109.931 7.62087 109.186 7.39185L111.219 6.99105V11.4284C111.219 12.8026 112.164 14.8352 113.767 14.8352C115.17 14.8352 115.742 14.0336 115.742 12.7167V7.42048C115.742 6.90517 115.714 6.81928 114.998 6.61888L117.031 6.18945V11.4284C117.031 12.8026 117.975 14.8352 119.578 14.8352H120.208V15.3505H120.008C118.548 15.3505 117.66 14.7207 116.945 13.3465C116.716 14.6348 115.656 15.3505 114.225 15.3505C112.765 15.3505 111.906 14.778 111.162 13.3465C110.904 14.6348 109.873 15.3505 108.471 15.3505C107.011 15.3505 106.209 14.7493 105.493 13.5469L105.436 13.461C105.15 14.6921 104.119 15.3792 102.688 15.3792H102.029V14.8638Z" fill="#F2F6FF"/>
<path d="M119.865 14.8638H120.036C121.41 14.8638 121.983 14.0622 121.983 12.7453V3.49837C121.983 2.98306 121.954 2.78266 121.267 2.58226L123.3 2.15283V12.7453C123.3 14.463 122.155 15.4078 120.466 15.4078H119.836V14.8638H119.865Z" fill="#F2F6FF"/>
<path d="M126.363 3.46955C126.363 2.95424 126.335 2.75385 125.619 2.55345L127.652 2.12402V15.3789H126.363V3.46955Z" fill="#F2F6FF"/>
<path d="M140.391 13.1747C140.219 13.5755 139.99 13.9477 139.704 14.2913C139.189 14.8352 138.416 15.3791 137.127 15.3791C135.066 15.3791 133.549 13.1175 133.549 10.5982C133.549 8.25067 135.123 5.90315 137.614 5.90315C139.16 5.90315 140.162 6.9624 140.448 6.9624C140.82 6.9624 140.878 6.3612 141.021 6.13218H141.565C141.479 6.59023 141.479 7.13417 141.479 7.56359V13.0602C141.479 13.6614 141.565 14.7779 142.824 14.8638H144.914V15.3791H143.397C141.908 15.3791 140.706 15.1787 140.391 13.1747ZM137.585 6.41846C135.782 6.41846 134.894 8.4797 134.894 10.7127C134.894 13.8905 136.412 14.8352 137.385 14.8352C138.559 14.8352 139.561 14.0336 139.933 12.8598C140.133 12.1728 140.191 11.4284 140.191 10.2833C140.191 8.4797 139.904 6.41846 137.585 6.41846ZM136.583 3.69877C136.154 3.69877 135.81 3.38386 135.81 2.95443C135.81 2.49638 136.154 2.15283 136.583 2.15283C137.013 2.15283 137.356 2.49638 137.356 2.95443C137.356 3.41248 137.013 3.69877 136.583 3.69877ZM139.332 3.69877C138.874 3.69877 138.53 3.38386 138.53 2.95443C138.53 2.49638 138.874 2.15283 139.332 2.15283C139.761 2.15283 140.076 2.49638 140.076 2.95443C140.076 3.41248 139.733 3.69877 139.332 3.69877Z" fill="#F2F6FF"/>
<path d="M151.557 15.3791C150.097 15.3791 149.18 14.7779 148.522 13.3751C148.293 14.6634 147.234 15.3791 145.774 15.3791H144.485V14.8638H145.401C146.718 14.8351 147.262 14.0622 147.262 12.7453V7.44902C147.262 6.93371 147.234 6.84783 146.547 6.64743L148.579 6.218V11.457C148.579 12.8311 149.495 14.8638 151.127 14.8638H151.757V15.3791H151.557ZM148.923 3.72734V3.26929H148.207C147.205 3.26929 146.69 2.21004 146.69 1.55159C146.69 1.09354 146.947 0.60685 147.491 0.60685C147.749 0.60685 147.978 0.635476 148.064 0.864503C147.949 0.950388 147.806 1.15079 147.806 1.32256C147.806 1.55158 148.007 1.75198 148.236 1.75198C148.465 1.75198 148.636 1.63747 148.636 1.23668C148.636 0.635481 148.15 0.206055 147.52 0.206055C146.604 0.206055 146.031 0.950393 146.031 1.80924C146.031 2.46769 146.518 3.01164 146.947 3.26929H145.86L145.688 3.72734H148.923Z" fill="#F2F6FF"/>
<path d="M151.556 19.0433C151.127 19.0433 150.783 18.7284 150.783 18.2703C150.783 17.8409 151.127 17.4973 151.556 17.4973C152.014 17.4973 152.329 17.8409 152.329 18.2703C152.3 18.7284 151.986 19.0433 151.556 19.0433ZM158.456 15.3788C156.996 15.3788 156.079 14.7776 155.392 13.3749C155.163 14.6631 154.104 15.3788 152.644 15.3788H151.356V14.8635H152.272C153.589 14.8349 154.133 14.0619 154.133 12.745V7.44879C154.133 6.93348 154.104 6.8476 153.417 6.6472L155.45 6.21777V11.4568C155.45 12.8309 156.366 14.8635 157.998 14.8635H158.627V15.3788H158.456ZM154.276 19.0433C153.818 19.0433 153.474 18.7284 153.474 18.2703C153.474 17.8409 153.789 17.4973 154.276 17.4973C154.705 17.4973 155.049 17.8409 155.049 18.2703C155.049 18.7284 154.705 19.0433 154.276 19.0433Z" fill="#F2F6FF"/>
<path d="M169.735 15.3793H158.255V14.864H159.973C160.001 14.6922 160.03 14.5491 160.058 14.4059C160.087 14.1197 160.144 13.862 160.202 13.6043C160.574 11.8294 161.719 10.2262 163.666 10.2262C165.355 10.2262 166.299 11.4 166.299 12.631C166.299 13.5185 165.756 14.4346 164.524 14.864H168.189C168.189 9.96856 166.156 7.50652 164.324 7.50652C161.919 7.50652 161.204 8.9093 160.86 10.9133H160.631C160.66 8.02183 162.435 6.99121 164.324 6.99121H164.353C167.473 6.99121 169.792 11.0278 169.792 14.8926V15.3793H169.735ZM160.431 14.864H161.547C163.064 14.864 165.068 14.2056 165.068 12.2875C165.068 11.3141 164.238 10.7988 163.408 10.7988C162.206 10.7988 160.975 11.9439 160.66 13.4898L160.431 14.864Z" fill="#F2F6FF"/>
<path d="M9.84564 29.2639H9.35895C9.01541 27.4603 8.04205 25.3705 5.8663 25.3705C4.17723 25.3705 2.25913 26.6015 2.25913 31.0102C2.25913 35.419 3.91957 36.65 5.95218 36.65C8.18519 36.65 9.44484 34.8751 9.53073 32.3558H10.1033C10.1033 35.2759 8.55736 37.1367 5.95218 37.1367C2.45953 37.1367 0.68457 33.9876 0.68457 31.0102C0.68457 27.5176 3.08935 24.8838 5.95218 24.8838C7.61263 24.8838 8.44285 26.0003 8.81502 26.0003C9.12993 26.0003 9.27307 25.485 9.35895 25.2846H9.84564V29.2639Z" fill="#F2F6FF"/>
<path d="M16.5734 31.1534V35.7339C16.5734 36.2492 16.7738 36.3637 17.0315 36.3637C17.375 36.3637 17.5754 36.0488 17.5754 35.0182H18.0621C18.0621 36.1633 17.7472 36.9363 16.6593 36.9363C15.8577 36.9363 15.4855 36.421 15.4569 35.4476H15.4283C14.9416 36.3924 14.0541 37.1367 12.7945 37.1367C11.678 37.1367 10.4756 36.4496 10.4756 35.1327C10.4756 32.957 13.8537 32.3558 15.4283 31.9263V30.6953C15.4283 29.722 14.913 29.0922 13.682 29.0922C12.9663 29.0922 12.2219 29.3498 11.7639 29.722L11.7925 29.7506C12.136 29.7506 12.5082 30.0083 12.5082 30.4949C12.5082 30.8957 12.2219 31.3252 11.7066 31.3252C11.2199 31.3252 10.9336 30.953 10.9336 30.3518C10.9336 29.4071 12.1074 28.6055 13.6533 28.6055C15.5142 28.6627 16.5734 29.2639 16.5734 31.1534ZM15.3997 32.413C13.8251 32.7566 11.7639 33.2433 11.7639 35.2759C11.7639 36.0775 12.4796 36.5928 13.1666 36.5928C14.3977 36.5928 15.3997 35.2472 15.3997 33.6727V32.413Z" fill="#F2F6FF"/>
<path d="M19.1208 30.0366C19.1208 29.5213 18.8345 29.3495 17.7467 29.3495V28.8628L20.266 28.7483V30.2656H20.2946C20.8671 29.464 21.2679 28.6338 22.8139 28.6338C24.8751 28.6338 26.2779 30.7237 26.2779 32.8994C26.2779 35.0465 24.8751 37.165 22.5276 37.165C21.5829 37.165 20.8099 36.7929 20.2946 36.0772H20.266V38.711C20.266 39.2263 20.5522 39.3981 21.6687 39.3981V39.8847H17.6035V39.3981C18.8059 39.3981 19.0922 39.2263 19.0922 38.711V30.0366H19.1208ZM20.2946 32.8994C20.2946 35.8481 20.8958 36.6784 22.6707 36.6784C23.9304 36.6784 25.0469 35.6191 25.0469 32.8994C25.0469 30.2084 23.9304 29.1205 22.6707 29.1205C21.3825 29.1205 20.2946 30.2084 20.2946 32.8994Z" fill="#F2F6FF"/>
<path d="M30.8582 36.9361H26.793V36.4494C27.9954 36.4494 28.2816 36.2777 28.2816 35.7624V30.0081C28.2816 29.4927 27.9954 29.321 26.9075 29.321V28.8343L29.4554 28.7198V35.7337C29.4554 36.249 29.7417 36.4208 30.8582 36.4208V36.9361ZM29.5413 26.0573C29.5413 26.5154 29.1977 26.8589 28.7111 26.8589C28.253 26.8589 27.8808 26.5154 27.8808 26.0573C27.8808 25.5993 28.253 25.2271 28.7111 25.2271C29.1691 25.1985 29.5413 25.5707 29.5413 26.0573Z" fill="#F2F6FF"/>
<path d="M35.8977 28.6628V29.1495H33.3211V35.2473C33.3211 36.3066 33.8364 36.6787 34.4376 36.6787C34.9529 36.6787 35.6973 36.3066 35.6973 34.9324V34.1881H36.1839V34.8179C36.1839 36.1921 35.5541 37.1654 34.1513 37.1654C32.8917 37.1654 32.176 36.4783 32.176 35.1614V29.1209H30.8877V28.6342C32.3191 28.6342 32.7485 27.2314 32.8631 26.0576H33.3497V28.6342H35.8977V28.6628Z" fill="#F2F6FF"/>
<path d="M42.8823 31.1534V35.7339C42.8823 36.2492 43.0827 36.3637 43.3404 36.3637C43.6553 36.3637 43.8557 36.0488 43.8557 35.0182H44.3424C44.3424 36.1633 44.0275 36.9363 42.9396 36.9363C42.138 36.9363 41.7658 36.421 41.7372 35.4476H41.7086C41.2219 36.3924 40.3344 37.1367 39.0748 37.1367C37.9583 37.1367 36.7559 36.4496 36.7559 35.1327C36.7559 32.957 40.134 32.3558 41.7086 31.9263V30.6953C41.7086 29.722 41.1933 29.0922 39.9622 29.0922C39.2465 29.0922 38.5022 29.3498 38.0441 29.722L38.0728 29.7506C38.4163 29.7506 38.7885 30.0083 38.7885 30.4949C38.7885 30.8957 38.5022 31.3252 37.9869 31.3252C37.5002 31.3252 37.2139 30.953 37.2139 30.3518C37.2139 29.4071 38.3877 28.6055 39.9336 28.6055C41.7944 28.6627 42.8823 29.2639 42.8823 31.1534ZM41.7086 32.413C40.134 32.7566 38.0728 33.2433 38.0728 35.2759C38.0728 36.0775 38.7885 36.5928 39.4756 36.5928C40.7066 36.5928 41.7086 35.2472 41.7086 33.6727V32.413Z" fill="#F2F6FF"/>
<path d="M47.0618 35.7625C47.0618 36.2778 47.3481 36.4496 48.4646 36.4496V36.9363H44.3994V36.4496C45.6018 36.4496 45.8881 36.2778 45.8881 35.7625V26.3438C45.8881 25.8285 45.6018 25.6567 44.5426 25.6567V25.1701L47.0618 25.1128V35.7625Z" fill="#F2F6FF"/>
<path d="M53.2178 25.1128H56.5673L59.6591 34.646H59.7164L62.98 25.1128H66.1864V25.5995C64.8409 25.5995 64.6119 25.6854 64.6119 26.7732V35.2759C64.6119 36.3637 64.8409 36.4496 66.215 36.4496V36.9363H61.6918V36.4496C63.1232 36.4496 63.3236 36.3637 63.3236 35.2759V26.0003H63.295L59.4874 36.9363H59.0866L55.4508 26.0003H55.4222V35.2186C55.4222 36.0774 55.823 36.421 57.054 36.4496V36.9363H53.2178V36.4496C54.4202 36.421 54.821 36.0488 54.821 35.2186V26.7732C54.821 25.6854 54.5919 25.5995 53.2178 25.5995V25.1128Z" fill="#F2F6FF"/>
<path d="M72.7707 31.1534V35.7339C72.7707 36.2492 72.9711 36.3637 73.2287 36.3637C73.5437 36.3637 73.7727 36.0488 73.7727 35.0182H74.2594C74.2594 36.1633 73.9445 36.9363 72.8566 36.9363C72.055 36.9363 71.6828 36.421 71.6542 35.4476H71.6256C71.1389 36.3924 70.2514 37.1367 68.9917 37.1367C67.8752 37.1367 66.6729 36.4496 66.6729 35.1327C66.6729 32.957 70.051 32.3558 71.6256 31.9263V30.6953C71.6256 29.722 71.1102 29.0922 69.8792 29.0922C69.1635 29.0922 68.4192 29.3498 67.9611 29.722L67.9898 29.7506C68.3333 29.7506 68.7055 30.0083 68.7055 30.4949C68.7055 30.8957 68.4192 31.3252 67.9039 31.3252C67.4172 31.3252 67.1309 30.953 67.1309 30.3518C67.1309 29.4071 68.3047 28.6055 69.8506 28.6055C71.7114 28.6627 72.7707 29.2639 72.7707 31.1534ZM71.5969 32.413C70.0224 32.7566 67.9325 33.2433 67.9325 35.2759C67.9325 36.0775 68.6482 36.5928 69.3353 36.5928C70.5663 36.5928 71.5683 35.2472 71.5683 33.6727V32.413H71.5969Z" fill="#F2F6FF"/>
<path d="M75.7195 30.0366C75.7195 29.5213 75.4332 29.3495 74.3453 29.3495V28.8628L76.8646 28.7483V30.8096H76.9219C77.2941 29.8076 77.9239 28.6338 79.1549 28.6338C79.842 28.6338 80.4718 29.0632 80.4718 29.8076C80.4718 30.3229 80.1569 30.6378 79.6702 30.6378C79.2122 30.6378 78.8686 30.3801 78.8686 29.8648C78.8686 29.5499 79.0118 29.3209 79.2694 29.1777C79.2122 29.1205 79.1263 29.0919 79.0118 29.0919C78.5537 29.0919 77.5231 29.6071 77.065 31.5825C76.836 32.6704 76.836 34.2736 76.836 35.3901C76.836 36.2489 77.1223 36.4207 78.3819 36.4207V36.9074H74.2881V36.4207C75.4046 36.4207 75.6622 36.2489 75.6622 35.7336V30.0366H75.7195Z" fill="#F2F6FF"/>
<path d="M88.774 28.8628V29.3495C87.4857 29.464 86.999 29.8648 84.8519 32.0119L87.0849 35.4187C87.7433 36.4493 87.9437 36.4779 88.9171 36.4779V36.9646H86.7986L84.0216 32.7563L83.2201 33.472V35.7909C83.2201 36.3062 83.5063 36.4779 84.6228 36.4779V36.9646H80.5576V36.4779C81.76 36.4779 82.0463 36.3062 82.0463 35.7909V26.3721C82.0463 25.8568 81.76 25.6851 80.6721 25.6851V25.1984L83.1914 25.1411V32.8994L85.8252 30.4946C86.1115 30.2083 86.3692 29.9793 86.3692 29.693C86.3692 29.4067 86.0543 29.3495 85.0523 29.3495V28.8628H88.774Z" fill="#F2F6FF"/>
<path d="M90.2346 32.6993V33.186C90.2346 35.1327 91.1793 36.65 92.8684 36.65C94.357 36.65 94.9582 35.9629 95.6167 34.9896L96.0461 35.2759C95.0155 36.7932 94.2139 37.1367 92.7539 37.1367C90.4063 37.1367 88.9463 35.0182 88.9463 32.8711C88.9463 30.3518 90.3491 28.6055 92.668 28.6055C94.8151 28.6055 96.0461 30.6381 96.0461 32.6707H90.2346V32.6993ZM94.7292 32.2126C94.7292 30.8098 94.2998 29.1208 92.5535 29.1208C90.9789 29.1208 90.2632 30.724 90.2632 32.2126H94.7292Z" fill="#F2F6FF"/>
<path d="M101.027 28.6628V29.1495H98.4503V35.2473C98.4503 36.3066 98.9656 36.6787 99.5668 36.6787C100.082 36.6787 100.826 36.3066 100.826 34.9324V34.1881H101.313V34.8179C101.313 36.1921 100.683 37.1654 99.2519 37.1654C97.9923 37.1654 97.2766 36.4783 97.2766 35.1614V29.1209H95.9883V28.6342C97.4483 28.6342 97.8491 27.2314 97.935 26.0576H98.4217V28.6342H101.027V28.6628Z" fill="#F2F6FF"/>
<path d="M104.806 36.9363V36.4496C105.922 36.4496 106.294 36.3065 106.523 35.7053L110.474 25.1128H110.903L114.854 35.8198C115.055 36.3637 115.455 36.4782 116.343 36.4782V36.9649H111.963V36.4782C113.251 36.4782 113.48 36.3351 113.48 35.9916C113.48 35.5049 112.621 33.5009 112.449 32.9283H108.155C108.069 33.2146 107.182 35.5049 107.182 36.0202C107.182 36.421 107.554 36.4782 108.728 36.4782V36.9649H104.806V36.9363ZM108.384 32.3271H112.278L110.36 27.0309L108.384 32.3271Z" fill="#F2F6FF"/>
<path d="M123.042 35.7624C123.042 36.2777 123.299 36.4495 124.33 36.4495V36.9362L121.868 37.0221V35.7338H121.839C121.238 36.5926 120.608 37.108 119.263 37.108C117.774 37.108 116.686 36.564 116.686 34.8463V29.9795C116.686 29.4642 116.4 29.2924 115.341 29.2924V28.8057L117.86 28.6912V34.9322C117.86 36.0201 118.461 36.5926 119.492 36.5926C120.923 36.5926 121.897 35.4189 121.897 33.5008V29.9509C121.897 29.4356 121.61 29.2638 120.523 29.2638V28.7771L123.07 28.6626V35.7624H123.042Z" fill="#F2F6FF"/>
<path d="M128.968 28.6628V29.1495H126.391V35.2473C126.391 36.3066 126.906 36.6787 127.508 36.6787C127.994 36.6787 128.767 36.3066 128.767 34.9324V34.1881H129.254V34.8179C129.254 36.1921 128.624 37.1654 127.221 37.1654C125.962 37.1654 125.246 36.4783 125.246 35.1614V29.1209H123.986V28.6342C125.418 28.6342 125.847 27.2314 125.933 26.0576H126.42V28.6342H128.968V28.6628Z" fill="#F2F6FF"/>
<path d="M136.211 36.9363V31.3538C136.211 30.4663 136.211 29.1208 134.637 29.1208C133.291 29.1208 132.203 30.4377 132.203 32.6993V35.7625C132.203 36.2778 132.489 36.4496 133.577 36.4496V36.9363H129.569V36.4496C130.772 36.4496 131.029 36.2778 131.029 35.7625V26.3438C131.029 25.8285 130.743 25.6567 129.655 25.6567V25.1701L132.175 25.1128V30.2659H132.203C132.804 29.178 133.549 28.6627 134.894 28.6627C136.412 28.6627 137.385 29.407 137.385 31.2106V35.7912C137.385 36.3065 137.585 36.4782 138.73 36.4782V36.9649H136.211V36.9363Z" fill="#F2F6FF"/>
<path d="M138.616 32.8994C138.616 30.7523 140.019 28.6338 142.338 28.6338C144.685 28.6338 146.06 30.7237 146.06 32.8994C146.06 35.0465 144.685 37.165 142.338 37.165C140.019 37.165 138.616 35.0465 138.616 32.8994ZM144.771 32.8994C144.771 30.466 143.998 29.1205 142.338 29.1205C140.677 29.1205 139.904 30.466 139.904 32.8994C139.904 35.3328 140.677 36.6784 142.338 36.6784C144.027 36.6784 144.771 35.3328 144.771 32.8994Z" fill="#F2F6FF"/>
<path d="M147.29 30.0366C147.29 29.5213 147.004 29.3495 145.916 29.3495V28.8628L148.464 28.7483V30.8096H148.493C148.894 29.8076 149.495 28.6338 150.755 28.6338C151.442 28.6338 152.071 29.0632 152.071 29.8076C152.071 30.3229 151.757 30.6378 151.27 30.6378C150.812 30.6378 150.468 30.3801 150.468 29.8648C150.468 29.5499 150.611 29.3209 150.869 29.1777C150.812 29.1205 150.726 29.0919 150.611 29.0919C150.153 29.0919 149.123 29.6071 148.665 31.5825C148.436 32.6704 148.436 34.2736 148.436 35.3901C148.436 36.2489 148.693 36.4207 149.982 36.4207V36.9074H145.888V36.4207C146.976 36.4207 147.262 36.2489 147.262 35.7336V30.0366H147.29Z" fill="#F2F6FF"/>
<path d="M156.537 36.9361H152.472V36.4494C153.674 36.4494 153.96 36.2777 153.96 35.7624V30.0081C153.96 29.4927 153.674 29.321 152.615 29.321V28.8343L155.134 28.7198V35.7337C155.134 36.249 155.392 36.4208 156.537 36.4208V36.9361ZM155.22 26.0573C155.22 26.5154 154.848 26.8589 154.39 26.8589C153.932 26.8589 153.56 26.5154 153.56 26.0573C153.56 25.5993 153.932 25.2271 154.39 25.2271C154.848 25.1985 155.22 25.5707 155.22 26.0573Z" fill="#F2F6FF"/>
<path d="M161.232 28.7483V29.2349H158.655V35.3614C158.655 36.4206 159.171 36.7928 159.772 36.7928C160.287 36.7928 161.032 36.4206 161.032 35.0465V34.2735H161.518V34.9033C161.518 36.2775 160.888 37.2509 159.457 37.2509C158.197 37.2509 157.482 36.5638 157.482 35.2469V29.2063H156.193V28.7196C157.625 28.7196 158.054 27.3168 158.14 26.1431H158.627V28.7196H161.232V28.7483Z" fill="#F2F6FF"/>
<path d="M161.061 28.7485H164.926V29.2352C163.666 29.2352 163.523 29.3784 163.523 29.636C163.523 30.0654 164.525 32.3557 165.67 35.1613H165.699C166.844 32.2412 167.731 30.3517 167.731 29.7791C167.731 29.3784 167.474 29.2352 166.443 29.2352V28.7485H169.707V29.2352C168.819 29.2352 168.561 29.407 168.218 30.2086L165.641 36.6499C164.697 39.0261 164.124 39.7418 162.836 39.7418C161.948 39.7418 161.204 39.1406 161.204 38.3676C161.204 37.8237 161.605 37.4515 162.063 37.4515C162.492 37.4515 162.836 37.7378 162.836 38.11C162.836 38.6253 162.55 38.9116 162.034 38.9402C162.149 39.1406 162.492 39.2551 162.922 39.2551C163.895 39.2551 164.611 38.2245 165.04 36.6213L162.349 29.865C162.149 29.3211 161.719 29.2066 161.032 29.2066V28.7485H161.061Z" fill="#F2F6FF"/>
<mask id="mask0_2927_669" style="mask-type:luminance" maskUnits="userSpaceOnUse" x="189" y="0" width="14" height="40">
<path d="M189.46 39.827L202.944 26.343L189.489 0.0908203L189.46 39.827Z" fill="white"/>
</mask>
<g mask="url(#mask0_2927_669)">
<path d="M200.138 -5.37695L219.09 31.5536L192.294 45.2952L173.342 8.39328L200.138 -5.37695Z" fill="url(#paint0_linear_2927_669)"/>
</g>
<path d="M215.74 13.5748L229.224 0.0908203H189.488L215.74 13.5748Z" fill="#90D2F4"/>
<path d="M202.944 26.3433L189.46 39.8272H229.225L202.944 26.3433Z" fill="#2970AD"/>
<mask id="mask1_2927_669" style="mask-type:luminance" maskUnits="userSpaceOnUse" x="215" y="0" width="15" height="40">
<path d="M215.738 13.5748L229.222 39.827V0.0908203L215.738 13.5748Z" fill="white"/>
</mask>
<g mask="url(#mask1_2927_669)">
<path d="M218.545 45.3238L199.593 8.39328L226.418 -5.37695L245.369 31.5536L218.545 45.3238Z" fill="url(#paint1_linear_2927_669)"/>
</g>
<defs>
<linearGradient id="paint0_linear_2927_669" x1="186.736" y1="1.50337" x2="200.21" y2="27.7508" gradientUnits="userSpaceOnUse">
<stop stop-color="#AAACAF"/>
<stop offset="1" stop-color="#FAFAFA"/>
</linearGradient>
<linearGradient id="paint1_linear_2927_669" x1="231.954" y1="38.4285" x2="218.474" y2="12.1691" gradientUnits="userSpaceOnUse">
<stop stop-color="#AAACAF"/>
<stop offset="1" stop-color="#FAFAFA"/>
</linearGradient>
</defs>
</svg>
