<svg width="169" height="32" viewBox="0 0 169 32" fill="none" xmlns="http://www.w3.org/2000/svg">
<path d="M15.3732 0.639648C16.8024 0.639648 18.1217 0.75069 19.3311 1.07942C20.5405 1.2993 21.53 1.73907 22.4095 2.28879C23.289 2.8385 23.9487 3.6081 24.3885 4.59868C24.8282 5.58706 25.0481 6.79753 25.0481 8.11684C25.0481 9.65494 24.7183 10.9754 23.9487 11.9648C23.289 12.9532 22.1896 13.8328 20.8703 14.4924C22.7393 15.0421 24.1686 16.0305 25.0481 17.3509C25.9277 18.6702 26.4774 20.3194 26.4774 22.1884C26.4774 23.7265 26.1476 25.0469 25.5978 26.1463C25.0481 27.2458 24.1686 28.2352 23.1791 28.8949C22.1896 29.5556 20.9803 30.1054 19.6609 30.4341C18.3416 30.7628 17.0223 30.9838 15.703 30.9838H0.970703V0.639648H15.3732ZM14.4936 12.9532C15.703 12.9532 16.6925 12.6234 17.4621 12.0737C18.2317 11.524 18.5615 10.5345 18.5615 9.32511C18.5615 8.66546 18.4516 8.0058 18.2317 7.56603C18.0118 7.12626 17.682 6.79643 17.2422 6.46661C16.8024 6.24672 16.3627 6.02683 15.813 5.91689C15.2632 5.80695 14.7135 5.80695 14.0539 5.80695H7.6772V12.9532H14.4936ZM14.8235 25.9264C15.4831 25.9264 16.1428 25.8165 16.6925 25.7077C17.2422 25.5966 17.7919 25.3767 18.2317 25.0469C18.6715 24.7171 19.0013 24.3872 19.3311 23.8375C19.551 23.2878 19.7709 22.6271 19.7709 21.8586C19.7709 20.3194 19.3311 19.2199 18.4516 18.4492C17.572 17.7896 16.3627 17.4609 14.9334 17.4609H7.6772V25.9264H14.8235ZM36.0424 25.8165C36.9219 26.696 38.2412 27.1358 40.0003 27.1358C41.2097 27.1358 42.3091 26.806 43.1887 26.2563C44.0682 25.5955 44.6179 24.937 44.8378 24.2762H50.225C49.3454 26.9148 48.0261 28.7849 46.267 29.9932C44.508 31.0926 42.4191 31.7534 39.8904 31.7534C38.1313 31.7534 36.5921 31.4225 35.1628 30.8728C33.7336 30.323 32.6342 29.5545 31.6447 28.4551C30.6552 27.4656 29.8856 26.2563 29.4458 24.8259C28.8961 23.3967 28.6762 21.8586 28.6762 20.0984C28.6762 18.4492 28.8961 16.9111 29.4458 15.4808C29.9955 14.0515 30.7651 12.8433 31.7546 11.7438C32.7441 10.7544 33.9535 9.87483 35.2728 9.32511C36.702 8.7754 38.1313 8.44557 39.8904 8.44557C41.7594 8.44557 43.4085 8.7754 44.8378 9.545C46.267 10.3146 47.3665 11.1941 48.246 12.5134C49.1256 13.7228 49.7852 15.151 50.225 16.6913C50.4449 18.2305 50.5548 19.7697 50.4449 21.5287H34.5032C34.5032 23.2878 35.1628 24.937 36.0424 25.8165ZM42.9688 14.2725C42.1992 13.5029 40.9898 13.0632 39.5605 13.0632C38.5711 13.0632 37.8015 13.2819 37.1418 13.6129C36.4822 13.9427 36.0424 14.3814 35.6026 14.8222C35.1628 15.2631 34.943 15.8117 34.833 16.3614C34.7231 16.9111 34.6131 17.3498 34.6131 17.7907H44.508C44.2881 16.1416 43.7384 15.0421 42.9688 14.2725ZM59.0204 0.639648V12.0737H59.1303C59.8999 10.7544 60.8894 9.87483 62.0988 9.32511C63.3081 8.7754 64.4076 8.44557 65.6169 8.44557C67.2661 8.44557 68.5854 8.66546 69.5749 9.10523C70.5644 9.545 71.4439 10.2047 71.9936 10.9743C72.5433 11.7438 72.9831 12.7333 73.203 13.8328C73.4229 14.9322 73.5328 16.1427 73.5328 17.5708V31.0937H67.486V18.6702C67.486 16.8012 67.1561 15.4819 66.6064 14.6024C66.0567 13.7228 65.0672 13.283 63.638 13.283C61.9888 13.283 60.7795 13.8328 60.1198 14.7134C59.3502 15.7018 59.0204 17.3509 59.0204 19.5498V31.0937H52.9735V0.639648H59.0204ZM77.9305 12.2936C78.5902 11.3041 79.3598 10.6444 80.3492 9.98367C81.3387 9.43396 82.4381 8.99529 83.6475 8.7743C84.8569 8.55441 86.0652 8.44447 87.2756 8.44447C88.3751 8.44447 89.4745 8.55441 90.6849 8.66436C91.7844 8.7743 92.8838 9.10303 93.7622 9.5439C94.7517 9.98257 95.4114 10.6433 96.0721 11.4129C96.6207 12.1836 96.9506 13.283 96.9506 14.6024V26.1463C96.9506 27.1358 97.0605 28.1253 97.1705 29.0059C97.2815 29.8855 97.6091 30.6551 97.9401 31.0937H91.7833C91.5623 30.8739 91.4523 30.4341 91.3435 30.1054C91.2336 29.7744 91.2336 29.3358 91.2336 29.0059C90.2441 29.9943 89.1447 30.6551 87.8253 31.0937C86.506 31.5335 85.1867 31.6435 83.8674 31.6435C82.768 31.6435 81.8884 31.5335 80.899 31.2048C80.0194 30.9849 79.2498 30.544 78.4802 29.9943C77.8206 29.4446 77.2709 28.785 76.8311 27.9065C76.5013 27.0259 76.2814 26.1463 76.2814 24.937C76.2814 23.7265 76.5013 22.6271 76.941 21.8586C77.3808 21.089 77.9305 20.4293 78.5902 19.8796C79.2498 19.4409 80.1294 19.0001 81.0089 18.7802C81.8884 18.5614 82.768 18.3415 83.7575 18.2305L86.3961 17.9006C87.2756 17.7907 88.0452 17.6807 88.7049 17.5708C89.3645 17.3509 89.9143 17.131 90.354 16.8012C90.7938 16.4714 90.9037 16.0316 90.9037 15.372C90.9037 14.7123 90.7938 14.1626 90.5739 13.8328C90.354 13.5029 90.0242 13.1731 89.6944 12.9532C89.3634 12.7333 88.9248 12.6234 88.485 12.5145C88.0452 12.4035 87.4955 12.4035 86.9458 12.4035C85.7364 12.4035 84.8569 12.6234 84.1972 13.1731C83.5376 13.7228 83.0978 14.6024 82.9879 15.7018H76.941C76.941 14.3825 77.3808 13.1731 77.9305 12.2936ZM89.9132 20.8691C89.5844 20.979 89.1447 21.089 88.7038 21.1989C88.264 21.31 87.8242 21.31 87.2745 21.4188C86.8359 21.5287 86.2861 21.5287 85.8453 21.6387L84.526 21.9685C84.0862 22.0785 83.6464 22.2983 83.4265 22.5182C83.0967 22.7381 82.8768 23.0679 82.6569 23.3978C82.3282 23.8375 82.3282 24.2773 82.3282 24.827C82.3282 25.3767 82.4382 25.8165 82.658 26.1463C82.8779 26.4762 83.0978 26.8071 83.4276 27.0259C83.7575 27.2458 84.1972 27.3568 84.637 27.4656C85.0768 27.5745 85.5154 27.5756 86.0652 27.5756C87.2756 27.5756 88.1541 27.3568 88.8137 27.0259C89.4745 26.5872 89.9131 26.1463 90.2441 25.5966C90.5739 25.0469 90.7938 24.4972 90.7938 23.9475C90.9037 23.3978 90.9037 22.9591 90.9037 22.6282V20.3194C90.5739 20.5393 90.2441 20.7602 89.9132 20.8691ZM106.077 8.99528V12.0737H106.187C106.955 10.7544 107.946 9.87483 109.154 9.32511C110.365 8.7754 111.684 8.44557 112.892 8.44557C114.541 8.44557 115.861 8.66546 116.85 9.10523C117.95 9.545 118.72 10.2047 119.27 10.9743C119.82 11.7438 120.258 12.7333 120.588 13.8328C120.808 14.9322 120.919 16.1427 120.919 17.5708V31.0937H114.872V18.6702C114.872 16.8012 114.541 15.4819 113.992 14.6024C113.442 13.7228 112.452 13.1731 110.913 13.1731C109.264 13.1731 108.054 13.8328 107.285 14.8222C106.516 15.8117 106.186 17.4609 106.186 19.6597V31.2037H100.139V8.99528H106.077ZM134.44 12.9532C133.452 12.9532 132.681 13.1731 132.022 13.614C131.363 14.0526 130.813 14.6024 130.373 15.3731C129.933 16.0327 129.713 16.8023 129.492 17.6818C129.274 18.5625 129.274 19.331 129.274 20.2116C129.274 20.9801 129.384 21.8608 129.492 22.6293C129.713 23.5099 129.932 24.1685 130.373 24.8281C130.813 25.4889 131.253 26.0386 131.912 26.4773C132.572 26.917 133.34 27.138 134.33 27.138C135.76 27.138 136.86 26.6982 137.738 25.9275C138.509 25.159 139.059 24.0596 139.169 22.6293H144.995C144.557 25.5977 143.457 27.7966 141.586 29.3369C139.718 30.875 137.299 31.6457 134.33 31.6457C132.681 31.6457 131.142 31.3158 129.822 30.7661C128.392 30.2164 127.293 29.4468 126.304 28.4573C125.316 27.4678 124.544 26.2585 123.994 24.9392C123.445 23.5099 123.226 22.0795 123.226 20.4304C123.226 18.6713 123.445 17.1321 123.994 15.7029C124.544 14.2736 125.205 12.9543 126.193 11.8549C127.183 10.7555 128.392 9.98587 129.712 9.32621C131.141 8.7765 132.68 8.44667 134.439 8.44667C135.759 8.44667 136.969 8.66656 138.177 8.99638C139.385 9.32621 140.486 9.87592 141.365 10.5345C142.355 11.1952 143.124 12.0737 143.674 13.1731C144.224 14.1626 144.555 15.4819 144.663 16.9111H138.727C138.51 14.2725 137.08 12.9532 134.44 12.9532ZM33.2938 2.72856H45.6074V5.69701H33.2938V2.72856ZM154.121 25.8165C155.001 26.696 156.43 27.1358 158.079 27.1358C159.289 27.1358 160.389 26.806 161.267 26.2563C162.148 25.5955 162.697 24.937 162.916 24.2762H168.194C167.314 26.9148 165.996 28.7849 164.235 29.9932C162.475 31.0926 160.387 31.7534 157.859 31.7534C156.1 31.7534 154.56 31.4225 153.13 30.8728C151.777 30.3682 150.569 29.5378 149.613 28.4551C148.624 27.4656 147.854 26.2563 147.414 24.8259C146.865 23.3967 146.645 21.8586 146.645 20.0984C146.645 18.4492 146.865 16.9111 147.414 15.4808C147.944 14.1019 148.727 12.8344 149.723 11.7438C150.712 10.7544 151.922 9.87483 153.241 9.32511C154.67 8.7754 156.21 8.44557 157.859 8.44557C159.727 8.44557 161.376 8.7754 162.696 9.545C164.124 10.3146 165.224 11.1941 166.104 12.5134C166.984 13.7228 167.644 15.151 168.083 16.6913C168.522 18.2294 168.633 19.8785 168.522 21.6387H152.58C152.58 23.2878 153.241 24.937 154.121 25.8165ZM161.157 14.2725C160.387 13.5029 159.177 13.0632 157.749 13.0632C156.759 13.0632 155.989 13.2819 155.329 13.6129C154.669 13.9427 154.12 14.3814 153.791 14.8222C153.462 15.2631 153.13 15.8117 153.021 16.3614C152.912 16.9111 152.803 17.3498 152.803 17.7907H162.697C162.366 16.1416 161.817 15.0421 161.157 14.2725Z" fill="#B8C2D5"/>
</svg>
