<svg width="187" height="37" viewBox="0 0 187 37" fill="none" xmlns="http://www.w3.org/2000/svg">
<path d="M39.4684 3.18322C36.4524 1.7721 33.2275 0.746553 29.856 0.162598C29.4419 0.911207 28.9582 1.9181 28.6247 2.71909C25.0406 2.18009 21.4896 2.18009 17.9715 2.71909C17.638 1.9181 17.1433 0.911207 16.7255 0.162598C13.3504 0.746553 10.1218 1.77587 7.10576 3.19069C1.0224 12.3834 -0.626693 21.3478 0.197857 30.185C4.23266 33.1981 8.14286 35.0284 11.9871 36.2262C12.9362 34.9198 13.7828 33.5312 14.512 32.0677C13.1231 31.54 11.7929 30.8887 10.5359 30.1326C10.8694 29.8856 11.1955 29.6273 11.5107 29.3615C19.1771 32.9473 27.5069 32.9473 35.0818 29.3615C35.4007 29.6273 35.7268 29.8856 36.0566 30.1326C34.7959 30.8924 33.462 31.5437 32.0731 32.0715C32.8024 33.5312 33.6453 34.9236 34.5981 36.2299C38.446 35.0321 42.3598 33.2018 46.3946 30.185C47.3621 19.9405 44.7419 11.0584 39.4684 3.18322ZM15.5565 24.7502C13.2551 24.7502 11.3677 22.6017 11.3677 19.9854C11.3677 17.3691 13.2148 15.2169 15.5565 15.2169C17.8982 15.2169 19.7855 17.3653 19.7452 19.9854C19.7488 22.6017 17.8982 24.7502 15.5565 24.7502ZM31.036 24.7502C28.7346 24.7502 26.8473 22.6017 26.8473 19.9854C26.8473 17.3691 28.6943 15.2169 31.036 15.2169C33.3777 15.2169 35.2651 17.3653 35.2248 19.9854C35.2248 22.6017 33.3777 24.7502 31.036 24.7502Z" fill="#B8C2D5"/>
<path d="M62.6094 9.36377H72.6136C75.0253 9.36377 77.0628 9.74928 78.7342 10.5166C80.4012 11.2839 81.6511 12.3544 82.4795 13.7243C83.3072 15.0942 83.7249 16.6625 83.7249 18.4292C83.7249 20.1585 83.2926 21.7268 82.4278 23.1304C81.563 24.5377 80.2473 25.6494 78.4775 26.4691C76.7077 27.2888 74.5157 27.7005 71.8958 27.7005H62.6094V9.36377ZM71.7929 23.0406C73.4165 23.0406 74.6664 22.6251 75.5382 21.7979C76.4107 20.9669 76.8469 19.8366 76.8469 18.403C76.8469 17.0742 76.4579 16.015 75.6813 15.2215C74.9046 14.4279 73.7282 14.0275 72.1557 14.0275H69.0261V23.0406H71.7929Z" fill="#B8C2D5"/>
<path d="M98.7023 27.6783C97.317 27.3115 96.0671 26.78 94.957 26.08V21.7307C95.7963 22.3932 96.921 22.9397 98.3319 23.3701C99.7427 23.7968 101.106 24.0101 102.425 24.0101C103.041 24.0101 103.507 23.9278 103.821 23.7631C104.137 23.5984 104.295 23.4001 104.295 23.1717C104.295 22.9097 104.21 22.6927 104.038 22.5167C103.865 22.3408 103.532 22.1948 103.038 22.0713L99.9593 21.3639C98.1965 20.9447 96.9466 20.3645 96.2031 19.6197C95.459 18.8785 95.0886 17.9053 95.0886 16.7001C95.0886 15.6858 95.4111 14.8062 96.0639 14.0538C96.7122 13.3015 97.6357 12.7213 98.8339 12.3134C100.033 11.9017 101.432 11.6958 103.041 11.6958C104.477 11.6958 105.793 11.853 106.992 12.1674C108.19 12.4818 109.179 12.8823 109.968 13.3726V17.4862C109.161 16.9958 108.237 16.6103 107.182 16.3183C106.13 16.0301 105.05 15.8879 103.935 15.8879C102.326 15.8879 101.524 16.1686 101.524 16.7263C101.524 16.9884 101.649 17.183 101.898 17.314C102.147 17.445 102.605 17.5797 103.268 17.722L105.833 18.1936C107.509 18.4893 108.758 19.0096 109.579 19.7507C110.4 20.4918 110.81 21.5885 110.81 23.0407C110.81 24.6315 110.132 25.8929 108.773 26.8286C107.413 27.7644 105.485 28.2322 102.986 28.2322C101.516 28.2285 100.088 28.0451 98.7023 27.6783Z" fill="#B8C2D5"/>
<path d="M116.863 27.1273C115.394 26.3936 114.284 25.398 113.544 24.1404C112.803 22.8827 112.43 21.4679 112.43 19.8958C112.43 18.3238 112.814 16.9165 113.584 15.6775C114.353 14.4386 115.482 13.4654 116.97 12.758C118.458 12.0506 120.235 11.6987 122.306 11.6987C124.871 11.6987 127 12.249 128.693 13.3494V18.1441C128.096 17.7249 127.399 17.3843 126.604 17.1223C125.809 16.8603 124.959 16.7293 124.05 16.7293C122.46 16.7293 121.217 17.025 120.319 17.6201C119.421 18.2152 118.971 18.99 118.971 19.952C118.971 20.8952 119.407 21.6663 120.279 22.2726C121.152 22.8752 122.416 23.1784 124.076 23.1784C124.93 23.1784 125.773 23.0511 126.604 22.8004C127.433 22.5459 128.147 22.2352 128.744 21.8684V26.5059C126.865 27.6587 124.684 28.2351 122.203 28.2351C120.114 28.2277 118.333 27.8609 116.863 27.1273Z" fill="#B8C2D5"/>
<path d="M135.094 27.1279C133.614 26.3943 132.485 25.3912 131.708 24.1148C130.931 22.8385 130.539 21.4162 130.539 19.8441C130.539 18.2721 130.927 16.8684 131.708 15.637C132.488 14.4056 133.61 13.4399 135.083 12.7399C136.552 12.04 138.308 11.6919 140.342 11.6919C142.376 11.6919 144.131 12.04 145.601 12.7399C147.07 13.4399 148.192 14.3981 148.961 15.622C149.731 16.846 150.116 18.2496 150.116 19.8404C150.116 21.4124 149.731 22.8348 148.961 24.111C148.192 25.3874 147.066 26.3905 145.586 27.1241C144.105 27.8578 142.357 28.2246 140.338 28.2246C138.319 28.2246 136.571 27.8615 135.094 27.1279ZM142.889 22.4791C143.512 21.8429 143.827 21.0007 143.827 19.9527C143.827 18.9046 143.515 18.0699 142.889 17.4523C142.266 16.831 141.415 16.5203 140.338 16.5203C139.243 16.5203 138.385 16.831 137.758 17.4523C137.135 18.0737 136.824 18.9046 136.824 19.9527C136.824 21.0007 137.135 21.8429 137.758 22.4791C138.382 23.1155 139.243 23.4374 140.338 23.4374C141.415 23.4336 142.266 23.1155 142.889 22.4791Z" fill="#B8C2D5"/>
<path d="M165.528 12.6654V18.3248C164.876 17.8868 164.033 17.6697 162.989 17.6697C161.621 17.6697 160.566 18.0928 159.833 18.9386C159.097 19.7846 158.73 21.1021 158.73 22.8837V27.7047H152.445V12.3772H158.602V17.2506C158.943 15.4689 159.496 14.1552 160.258 13.3054C161.017 12.4596 161.999 12.0366 163.194 12.0366C164.099 12.0366 164.876 12.2462 165.528 12.6654Z" fill="#B8C2D5"/>
<path d="M186.408 8.83936V27.7039H180.122V24.2717C179.591 25.563 178.785 26.5474 177.7 27.2211C176.615 27.8911 175.274 28.228 173.684 28.228C172.262 28.228 171.024 27.8761 169.964 27.1687C168.905 26.4613 168.088 25.4919 167.513 24.2604C166.941 23.029 166.651 21.6366 166.651 20.0795C166.633 18.4738 166.937 17.0327 167.564 15.7564C168.187 14.48 169.07 13.4844 170.206 12.7695C171.342 12.0546 172.639 11.6953 174.094 11.6953C177.089 11.6953 179.097 13.024 180.122 15.6778V8.83936H186.408ZM179.185 22.374C179.826 21.7377 180.145 20.9105 180.145 19.8999C180.145 18.9229 179.833 18.1257 179.21 17.5156C178.587 16.9055 177.733 16.5986 176.659 16.5986C175.6 16.5986 174.754 16.9092 174.12 17.5305C173.486 18.1519 173.171 18.9566 173.171 19.9523C173.171 20.9479 173.486 21.7601 174.12 22.3889C174.754 23.0177 175.59 23.3321 176.634 23.3321C177.693 23.3284 178.543 23.0102 179.185 22.374Z" fill="#B8C2D5"/>
<path d="M89.0197 14.0086C90.7497 14.0086 92.1527 12.7218 92.1527 11.1344C92.1527 9.54704 90.7497 8.26025 89.0197 8.26025C87.2891 8.26025 85.8867 9.54704 85.8867 11.1344C85.8867 12.7218 87.2891 14.0086 89.0197 14.0086Z" fill="#B8C2D5"/>
<path d="M85.8867 15.9888C87.8066 16.8347 90.1889 16.8721 92.1529 15.9888V27.7866H85.8867V15.9888Z" fill="#B8C2D5"/>
</svg>
