<svg width="151" height="38" viewBox="0 0 151 38" fill="none" xmlns="http://www.w3.org/2000/svg">
<path d="M46.2982 15.6133C48.0172 15.6133 49.4106 14.2193 49.4106 12.5C49.4106 10.7803 48.0172 9.38664 46.2982 9.38664C44.5791 9.38664 43.1857 10.7803 43.1857 12.5C43.1857 14.2193 44.5791 15.6133 46.2982 15.6133ZM149.018 26.2505C148.544 25.9175 148.179 25.8624 147.875 26.5089C142.648 37.8311 133.839 32.1811 134.714 32.6784C136.668 31.7845 141.807 27.663 141.03 21.972C140.558 18.494 137.573 16.9513 134.405 17.5036C128.874 18.4679 126.839 24.4335 127.875 29.7149C128.056 30.622 128.38 31.37 128.704 32.1028C122.454 37.1854 119.972 27.5529 119.69 26.4018C119.679 26.3402 124.516 22.3084 125.861 12.7009C127.271 2.63166 124.059 0.798225 120.775 0.855428C114.696 0.961328 113.054 13.6608 115.26 24.2448C115.076 24.2929 114.216 24.7693 112.834 24.8227C111.839 21.6936 107.59 18.9507 106.478 20.0077C103.695 22.6517 107.153 27.8208 109.586 28.2262C108.124 37.2294 98.9827 34.9996 100.684 23.72C103.661 18.1918 105.925 9.97188 105.522 5.00956C105.378 3.25269 104.079 0.898844 101.142 1.0156C95.4916 1.23913 94.8773 13.9421 95.5397 22.9579C95.5068 22.7358 95.1924 24.0533 92.8769 24.7083C92.3293 21.6683 87.4344 18.6169 86.2821 20.084C84.1251 22.8297 87.8633 27.7254 89.634 28.0669C88.1722 37.0698 79.0308 34.8401 80.7325 23.5605C83.7094 18.0326 85.9732 9.81259 85.5693 4.85027C85.4261 3.0931 84.1275 0.739261 81.1896 0.855721C75.5393 1.07955 74.9251 13.7825 75.5875 22.7983C75.5543 22.5727 75.2325 23.9336 72.8226 24.5778C72.742 20.6337 67.8292 18.8252 66.6491 20.0837C64.5457 22.3269 67.1308 26.9296 69.5221 28.0669C68.0604 37.0698 58.919 34.8401 60.6207 23.5605C63.5976 18.0326 65.8617 9.81259 65.4575 4.85027C65.3146 3.0931 64.0157 0.739261 61.0778 0.855721C55.4278 1.07955 54.9731 14.4211 55.6355 23.4367C53.7745 31.4102 47.5335 41.3677 48.3443 21.4208C48.4244 20.0215 48.5118 19.4902 47.8142 18.9663C47.2915 18.5591 46.1028 18.7551 45.453 18.7712C44.6633 18.8029 44.4653 19.2649 44.2908 19.9634C43.8842 21.7669 43.8112 23.5153 43.7531 25.9008C43.7149 27.0167 43.6255 27.5374 43.1957 29.059C42.7665 30.5803 40.3179 33.361 38.9773 32.896C37.1175 32.2565 37.7277 27.0061 38.0762 23.3988C38.3666 20.548 37.4366 19.2679 35.0541 18.8023C33.6592 18.5116 32.8117 18.5562 31.359 18.0983C29.9853 17.6653 29.6746 15.0668 26.7446 15.9328C25.142 16.4068 26.1723 19.8023 25.7871 22.319C23.8935 34.6987 19.9536 35.0387 18.1257 29.025C26.358 8.86272 20.5071 0.914098 17.0822 0.914098C13.5151 0.914098 9.43753 3.3712 11.1642 19.0924C10.3246 18.8475 10.0665 18.7155 9.1474 18.7155C3.94953 18.7155 0.408203 22.9174 0.408203 28.1009C0.408203 33.2844 3.94982 37.4867 9.1477 37.4867C12.2161 37.4867 14.3705 36.0912 16.0021 33.9324C17.0667 35.457 18.363 37.5101 20.7336 37.4177C27.7995 37.1426 29.8544 22.6484 30.097 21.84C30.8524 21.9564 31.567 22.1767 32.2646 22.2932C33.4268 22.4677 33.5113 22.9277 33.4849 24.0967C33.1769 33.9544 34.996 37.406 39.1222 37.406C41.4212 37.406 43.4703 35.1472 44.8819 33.532C45.9362 35.7081 47.6162 37.3394 49.87 37.4057C55.3313 37.5415 57.4223 28.8369 57.2316 29.9825C57.082 30.8813 59.0035 37.3567 64.6258 37.3802C71.5903 37.4095 72.8848 29.7507 73.0391 28.4679C73.0585 28.2127 73.067 28.2391 73.0391 28.4679L73.0338 28.5456C75.2448 28.1344 76.3857 26.9489 76.3857 26.9489C76.3857 26.9489 78.161 37.4993 84.7374 37.3805C91.5665 37.2567 92.8544 30.3336 93.0233 28.9836C93.0456 28.6633 93.0588 28.7008 93.0233 28.9836C93.0224 28.9968 93.0215 29.01 93.0207 29.0232C95.647 28.0678 96.3379 27.1088 96.3379 27.1088C96.3379 27.1088 97.7489 37.4494 104.69 37.5398C110.875 37.6207 113.167 31.287 113.18 28.636C114.223 28.6471 116.153 28.017 116.108 27.9812C116.108 27.9812 118.373 37.0223 124.7 37.4867C127.671 37.7046 129.899 35.8152 131.169 34.9533C134.154 37.3708 144.094 40.4586 150.371 29.8173C151.257 28.2901 149.352 26.486 149.018 26.2505ZM8.89688 33.9764C5.86423 33.9764 3.91961 31.1723 3.91961 28.1487C3.91961 25.1255 5.70464 22.3213 8.7373 22.3213C10.102 22.3213 10.8612 22.4715 11.924 23.3959C12.1167 24.1554 12.6629 25.9073 12.9287 26.7028C13.2848 27.7674 13.7084 28.6735 14.1355 29.6598C13.5254 32.1894 11.525 33.9764 8.89688 33.9764ZM16.287 23.4848C16.1608 23.2838 16.1872 23.4073 16.0461 23.2175C15.4902 21.7053 14.4189 18.33 14.2948 14.4962C14.1546 10.1593 14.8774 5.07586 17.0083 5.07586C18.4522 5.07586 19.9867 15.3783 16.2867 23.4848H16.287ZM58.9873 18.966C58.6453 16.3924 58.6274 4.9195 61.3817 5.23544C62.9024 5.85148 60.4174 16.6776 58.9873 18.966ZM79.0992 18.966C78.7571 16.3924 78.7392 4.9195 81.4935 5.23544C83.0142 5.85148 80.5292 16.6776 79.0992 18.966ZM99.0514 19.1259C98.709 16.552 98.6914 5.07909 101.445 5.39502C102.966 6.01106 100.481 16.8374 99.0514 19.1259ZM121.078 4.56396C123.597 4.30288 123.493 15.2994 118.438 22.2418C117.786 19.7325 116.787 5.42553 121.078 4.56367V4.56396ZM131.663 28.2262C130.854 24.1407 132.944 21.4574 135.098 21.1632C135.851 21.0429 136.942 21.5308 137.16 22.4428C137.518 24.1615 137.108 26.711 132.286 29.9458C132.293 29.9734 131.843 29.1362 131.663 28.2262H131.663Z" fill="#B8C2D5"/>
</svg>
