<svg width="187" height="37" viewBox="0 0 187 37" fill="none" xmlns="http://www.w3.org/2000/svg">
<path d="M11.884 36.3324H4.84843V18.6062H0.0556641V12.8349H4.84824V8.7282C4.84824 3.86176 6.96801 0.371582 13.9845 0.371582C15.4685 0.371582 17.7984 0.673895 17.7984 0.673895V6.03287H15.3513C12.8579 6.03287 11.8844 6.7994 11.8844 8.91861V12.8349H17.705L17.1867 18.6062H11.8842L11.884 36.3324ZM28.0273 12.3737C27.9248 12.3737 27.8193 12.3775 27.7149 12.3801C21.1911 12.3801 18.2063 17.3398 18.2063 24.3801C18.2063 33.2491 22.078 36.7987 27.7659 36.7987C31.0201 36.7987 33.1582 35.4144 34.4577 32.8309V36.3349H41.1496V12.8374H34.4577V16.451C33.3966 14.126 31.1988 12.4012 28.0273 12.3737ZM29.7288 17.9261C32.4688 17.9261 34.1134 19.8577 34.1134 23.1433L34.1198 26.4992C34.1198 28.7137 32.7614 31.3045 29.7288 31.3045C25.0666 31.3045 25.1911 26.2165 25.1911 24.5219C25.1911 18.8215 27.6752 17.9261 29.7288 17.9261ZM43.8521 24.5873C43.8521 21.732 43.7169 12.389 55.7607 12.389C60.5953 12.389 62.614 13.9426 62.614 13.9426L60.9915 19.0289C60.9915 19.0289 58.9753 17.9068 56.3483 17.9068C52.9835 17.9068 50.8365 19.8783 50.8365 23.347L50.8402 25.8341C50.8402 29.1671 52.9118 31.392 56.3552 31.392C58.7485 31.392 60.9543 30.2594 60.9543 30.2594L62.5728 35.2394C62.5728 35.2394 60.7269 36.8029 55.7945 36.8029C44.3269 36.8029 43.8522 28.4204 43.8522 24.5873H43.8521ZM101.851 12.3801C108.375 12.3801 111.407 17.3398 111.407 24.3801C111.407 33.2491 107.535 36.7987 101.847 36.7987C98.5925 36.7987 96.1869 35.4146 94.8874 32.8309V36.3349L88.2797 36.3322V1.08604L95.2953 0.467635V16.1326C96.3079 13.392 99.6355 12.3801 101.851 12.3801H101.851ZM99.8838 17.9261C97.1438 17.9261 95.2953 19.8577 95.2953 23.1433L95.2888 26.4992C95.2847 28.7137 96.5689 31.3045 99.8838 31.3045C104.546 31.3045 104.422 26.2165 104.422 24.5219C104.422 18.8215 101.938 17.9261 99.8838 17.9261ZM74.7867 12.3995C67.3872 12.3995 63.4808 16.477 63.4808 23.7231V25.0693C63.4808 34.474 68.9666 36.8954 75.5068 36.8954C81.8639 36.8954 84.7413 35.0983 84.7413 35.0983L83.4285 30.3126C83.4285 30.3126 80.0438 31.7681 76.348 31.7681C72.5166 31.7681 70.8688 30.7812 70.4465 27.0598H85.3022V23.2205C85.3022 15.3604 80.918 12.3994 74.7865 12.3994L74.7867 12.3995ZM74.965 17.1916C77.5263 17.1916 79.186 18.7791 79.0949 22.4606H70.4594C70.6091 18.5858 72.399 17.1918 74.965 17.1918V17.1916ZM125.395 12.3673C117.797 12.3673 113.796 16.6951 113.796 24.4509C113.796 35.0922 120.692 36.8052 125.408 36.8052C132.312 36.8052 136.905 33.0485 136.905 24.5475C136.905 15.6995 131.741 12.3673 125.395 12.3673ZM125.3 17.9453C128.641 17.9453 129.965 20.4727 129.965 23.3496V25.823C129.965 29.3081 128.112 31.3239 125.287 31.3239C122.645 31.3239 120.788 29.4383 120.788 25.823V23.3496C120.788 19.4939 122.997 17.9453 125.3 17.9453ZM150.881 12.3673C143.283 12.3673 139.282 16.6951 139.282 24.4509C139.282 35.0922 146.178 36.8052 150.894 36.8052C157.798 36.8052 162.391 33.0485 162.391 24.5475C162.391 15.6995 157.227 12.3673 150.881 12.3673ZM150.786 17.9453C154.127 17.9453 155.451 20.4727 155.451 23.3496V25.823C155.451 29.3081 153.598 31.3239 150.773 31.3239C148.131 31.3239 146.274 29.4383 146.274 25.823V23.3496C146.274 19.4939 148.483 17.9453 150.786 17.9453ZM165.042 36.3324V1.08604L172.078 0.467635V24.092L179.059 12.8349H186.489L179.207 24.4939L186.77 36.3324H179.318L172.078 24.8374V36.3324H165.042Z" fill="#B8C2D5"/>
</svg>
