<svg width="150" height="50" viewBox="0 0 150 50" fill="none" xmlns="http://www.w3.org/2000/svg">
<path d="M18.8821 0.144531H20.2023C24.7857 0.245235 29.2944 2.10826 32.5327 5.40631C31.337 6.63993 30.1164 7.8232 28.9457 9.05682C27.1273 7.39521 24.9352 6.11123 22.5439 5.65807C19.0067 4.90279 15.1955 5.58254 12.2312 7.62179C8.99296 9.76175 6.80091 13.3871 6.32762 17.2642C5.80452 21.0909 6.87564 25.1191 9.3417 28.0898C11.7081 30.9851 15.32 32.7977 19.0565 32.9236C22.5439 33.125 26.1807 32.0425 28.7215 29.5752C30.7143 27.8381 31.6359 25.1946 31.9348 22.6267C27.7998 22.6267 23.6648 22.6518 19.5298 22.6267V17.4404H36.9417C37.8384 23.0043 36.5431 29.2731 32.3583 33.2509C29.5684 36.0706 25.7074 37.7322 21.7717 38.0595C17.9605 38.4372 14.0247 37.7071 10.637 35.844C6.57672 33.6537 3.33845 29.9529 1.74423 25.5974C0.249645 21.5944 0.224735 17.0628 1.61968 13.0346C2.89008 9.35893 5.33123 6.11123 8.46986 3.8454C11.4839 1.60474 15.1457 0.371115 18.8821 0.144531Z" fill="#B8C2D5"/>
<path d="M118.771 1.4541H124.102V37.4053C122.334 37.4053 120.54 37.4305 118.771 37.3801C118.796 25.4216 118.771 13.4378 118.771 1.4541Z" fill="#B8C2D5"/>
<path d="M48.8 13.9157C52.0881 13.2863 55.6502 13.9912 58.3654 15.9801C60.8314 17.7424 62.5502 20.5118 63.0733 23.5329C63.7459 27.0323 62.899 30.859 60.6571 33.6283C58.2408 36.725 54.2802 38.3866 50.4192 38.1348C46.882 37.9334 43.4444 36.1459 41.352 33.2255C38.9856 30.003 38.4126 25.5721 39.708 21.7957C41.0033 17.7424 44.665 14.6458 48.8 13.9157ZM49.5473 18.6991C48.2022 19.0516 46.9567 19.832 46.0599 20.9397C43.6437 23.8601 43.7932 28.6184 46.4585 31.3373C47.978 32.8982 50.2697 33.6283 52.387 33.2003C54.3549 32.8479 56.0737 31.5136 57.0202 29.7513C58.6643 26.7554 58.191 22.6265 55.6751 20.2852C54.056 18.7746 51.6896 18.1452 49.5473 18.6991Z" fill="#B8C2D5"/>
<path d="M75.2023 13.9156C78.9637 13.1855 83.0738 14.2429 85.8886 16.9116C90.472 21.0656 90.9702 28.845 87.0594 33.6284C84.693 36.6495 80.8569 38.3112 77.0706 38.1349C73.4587 38.0342 69.8966 36.2215 67.7543 33.2256C65.3381 29.9275 64.815 25.3959 66.185 21.5439C67.555 17.6165 71.1421 14.6205 75.2023 13.9156ZM75.9496 18.6991C74.6045 19.0515 73.359 19.832 72.4623 20.9145C70.0709 23.7846 70.1706 28.4673 72.7363 31.2115C74.2558 32.848 76.6222 33.6536 78.8143 33.2004C80.7572 32.8228 82.5009 31.5136 83.4475 29.7513C85.0666 26.7302 84.5933 22.6013 82.0525 20.26C80.4334 18.7494 78.067 18.1452 75.9496 18.6991Z" fill="#B8C2D5"/>
<path d="M97.6003 15.3756C100.465 13.563 104.276 13.0594 107.365 14.6203C108.336 15.0483 109.133 15.7784 109.906 16.5085C109.931 15.8288 109.906 15.1239 109.931 14.4189C111.6 14.4441 113.269 14.4189 114.962 14.4441V36.6493C114.937 39.9977 114.091 43.5475 111.699 45.9895C109.084 48.6833 105.073 49.5141 101.461 48.9603C97.6003 48.3812 94.2374 45.5364 92.7429 41.9362C94.2374 41.2061 95.8068 40.6271 97.3512 39.9473C98.223 42.0117 99.9916 43.774 102.209 44.1769C104.426 44.5797 106.991 44.0258 108.436 42.1628C109.98 40.2494 109.98 37.6311 109.906 35.2898C108.76 36.4227 107.44 37.4297 105.845 37.8074C102.383 38.7892 98.5717 37.5808 95.9064 35.2142C93.2161 32.8477 91.6219 29.1972 91.7714 25.5719C91.8461 21.4682 94.1378 17.5156 97.6003 15.3756ZM102.757 18.5981C101.237 18.8499 99.8172 19.7059 98.8458 20.8891C96.5042 23.7088 96.5042 28.2153 98.8707 30.9847C100.216 32.6211 102.383 33.5274 104.475 33.3009C106.443 33.0995 108.262 31.8407 109.233 30.1035C110.877 27.1579 110.603 23.155 108.386 20.587C107.016 19.0009 104.824 18.2205 102.757 18.5981Z" fill="#B8C2D5"/>
<path d="M130.498 16.6597C133.487 13.84 138.095 12.8833 141.931 14.3687C145.568 15.7534 147.885 19.2528 149.055 22.853C143.65 25.1188 138.269 27.3595 132.864 29.6253C133.611 31.0603 134.757 32.3695 136.302 32.8982C138.469 33.6786 141.059 33.4017 142.878 31.9415C143.6 31.3876 144.173 30.6575 144.721 29.9526C146.091 30.8841 147.461 31.7904 148.831 32.7219C146.888 35.6675 143.625 37.7319 140.113 38.0592C136.227 38.5376 132.092 37.027 129.576 33.9556C125.441 29.1218 125.839 21.0151 130.498 16.6597ZM133.163 21.3172C132.316 22.5509 131.967 24.0614 131.992 25.5468C135.604 24.0362 139.216 22.5257 142.828 20.9899C142.23 19.5801 140.785 18.7241 139.316 18.4975C136.949 18.0695 134.483 19.3535 133.163 21.3172Z" fill="#B8C2D5"/>
</svg>
