<svg width="193" height="47" viewBox="0 0 193 47" fill="none" xmlns="http://www.w3.org/2000/svg">
<path d="M20.9386 0.361343C18.444 0.643895 14.7021 1.81757 12.5731 2.99124C6.8528 6.09931 2.9819 10.9461 1.04645 17.4014C0.659356 18.662 0.20775 22.0961 0.229255 23.7044C0.229255 25.1172 0.659356 28.573 0.917416 29.3989C1.04645 29.7901 1.32601 30.7247 1.56257 31.442C1.94966 32.6591 3.82059 36.4844 4.14317 36.7453C4.20768 36.8105 4.55176 37.2452 4.87434 37.7451C5.67003 38.9405 7.75601 41.0705 9.32588 42.2876C10.5302 43.2222 13.928 45.2001 14.3581 45.2218C14.4656 45.2218 14.4871 44.3959 14.4226 43.3091C14.272 40.8966 14.7236 37.6146 15.6914 34.2675C15.8634 33.7024 15.9924 32.9634 15.9924 32.6374C15.9924 32.3114 16.0785 31.9636 16.186 31.8549C16.2935 31.7245 16.4871 31.0942 16.5946 30.4422C16.7236 29.7901 16.9387 28.7904 17.0892 28.2253C17.3042 27.3776 17.2827 27.0516 16.9817 26.1387C16.5516 24.7477 16.5301 22.4873 16.9602 21.4005C17.9709 18.8141 19.0892 17.8361 20.9816 17.8361C23.2611 17.8361 24.3579 19.5748 23.9278 22.4873C23.7342 23.8131 23.1966 25.8996 22.8525 26.5517C22.7665 26.7473 22.616 27.2907 22.5515 27.7471C22.4654 28.2252 22.2934 28.899 22.1859 29.2685C21.8848 30.1162 22.4654 31.768 23.2396 32.3983C23.9708 32.9851 25.4977 33.159 26.8955 32.833C27.8847 32.6157 28.2933 32.3548 29.3255 31.355C30.5513 30.1379 31.476 28.7251 31.476 28.0514C31.476 27.8558 31.5836 27.5949 31.7126 27.4645C32.3147 26.856 32.6373 22.1178 32.1857 20.1182C31.6911 17.923 30.1642 15.7713 28.1858 14.5106C26.2073 13.2283 22.1214 12.8588 19.6053 13.7282C17.8419 14.3368 16.272 15.3583 15.2613 16.5537C14.3581 17.6187 13.4118 19.3575 13.4118 19.9661C13.4118 20.1834 13.3043 20.466 13.1753 20.5964C13.0462 20.7268 12.8957 21.5527 12.8312 22.4438C12.7237 23.7696 12.8097 24.3782 13.1968 25.6823C13.4548 26.5734 13.928 27.6167 14.2075 28.0079C14.7882 28.7903 14.7882 29.0946 14.2505 31.1812C14.1 31.7463 13.8419 32.2679 13.6914 32.3331C12.3366 32.8547 9.58394 29.5728 8.65922 26.3126C8.31514 25.0737 8.29364 20.6616 8.63772 19.3575C8.78825 18.8141 9.04631 18.0751 9.21835 17.6839C9.39039 17.3144 9.54093 16.9449 9.54093 16.858C9.54093 16.7711 9.97103 16.0321 10.5087 15.2279C13.3043 10.9679 17.8419 8.70747 23.5837 8.70747C24.8955 8.70747 26.2503 8.79441 26.6159 8.90309C29.5836 9.83768 30.3793 10.142 31.5406 10.8375C33.7986 12.2068 35.433 14.0759 37.0674 17.2057C37.1749 17.4014 37.3254 17.923 37.3899 18.3577C37.476 18.7924 37.6265 19.2053 37.734 19.2705C37.8415 19.3357 37.9276 20.7485 37.9276 22.4221C37.9276 25.4432 37.7125 26.6603 36.8093 29.1381C35.7986 31.8549 33.1965 34.8543 30.8309 36.028C29.4761 36.6801 26.9385 37.3973 25.9278 37.3973C24.5729 37.3973 21.9063 36.2671 21.1751 35.3542C20.8311 34.9413 20.5085 35.0934 20.5085 35.6803C20.5085 35.8976 20.4225 36.2671 20.2934 36.4844C20.1859 36.68 19.9924 37.2886 19.8848 37.832C19.2612 40.701 18.3795 43.0266 17.0247 45.2001C16.6161 45.8738 16.9602 46.2651 18.0784 46.4172C18.6376 46.5041 19.3902 46.6563 19.7343 46.765C20.5945 47.0475 25.2611 47.004 26.831 46.7215C28.2503 46.4607 30.5513 45.8086 31.5836 45.3739C38.0781 42.6788 43.0027 37.2017 45.1317 30.2248C46.2715 26.5082 46.336 22.183 45.3038 17.8361C44.9597 16.4233 44.8522 16.0973 43.9275 13.9238C42.5941 10.7505 39.5834 7.0339 36.5297 4.75176C33.9061 2.79563 31.3255 1.66543 27.3041 0.687364C26.1858 0.426547 22.2074 0.2092 20.9386 0.361343ZM78.2925 8.20758C77.4538 8.33798 76.1205 9.72901 75.7764 10.8157C75.4108 12.0112 75.7764 13.2935 76.8086 14.2933C79.0882 16.532 83.0451 14.4237 82.5505 11.207C82.2494 9.1639 80.4 7.85982 78.2925 8.20758ZM54.852 9.48992C54.6585 9.70727 54.6585 35.9193 54.8735 36.2236C54.981 36.3975 55.9058 36.4627 57.7122 36.441L60.4003 36.4192L60.5078 32.0071C60.5938 28.4209 60.6799 27.5515 60.9379 27.3993C61.11 27.2907 62.5723 27.182 64.1852 27.182C67.712 27.182 69.1959 26.9212 70.8087 26.0518C72.9162 24.8998 74.142 23.248 74.8087 20.6181C75.2173 18.9663 75.2173 17.7708 74.7872 16.0755C74.4001 14.5541 74.228 14.1846 73.3033 12.9457C72.1636 11.4026 71.0023 10.5549 69.1098 9.88115C68.0561 9.53339 67.1744 9.46819 61.4756 9.40299C57.9272 9.35952 54.938 9.40298 54.852 9.48992ZM66.6583 14.9019C68.0991 15.3583 68.8088 16.0103 69.1313 17.184C69.5399 18.7272 69.2389 20.1617 68.3357 21.0311C67.3464 21.9656 66.4647 22.183 63.583 22.183C61.6906 22.183 61.11 22.1178 60.8519 21.8352C60.5723 21.5744 60.5078 20.9441 60.5078 18.4664C60.5078 14.5541 60.4863 14.5758 63.4755 14.5758C64.7658 14.5758 66.0131 14.7063 66.6583 14.9019ZM104.378 13.6195C104.378 15.1192 104.271 16.532 104.163 16.7711C104.012 17.0536 103.711 17.184 103.195 17.184C102.808 17.184 102.443 17.271 102.4 17.4014C102.378 17.51 102.378 18.2707 102.443 19.0749C102.55 20.5094 102.572 20.5312 103.217 20.6833C103.582 20.7485 103.991 20.8789 104.12 20.9659C104.314 21.0745 104.378 22.7916 104.378 27.1385C104.378 32.9851 104.4 33.2025 104.873 34.0719C105.862 35.9193 107.41 36.5714 110.55 36.4844L112.658 36.4192L112.722 34.311L112.787 32.181H112.249C111.432 32.181 110.227 31.5289 110.098 31.0073C110.034 30.7465 109.969 28.4426 109.969 25.8562C109.969 22.2917 110.034 21.0963 110.249 20.9224C110.399 20.792 111.002 20.6616 111.582 20.6181L112.658 20.5529V17.2927L111.475 17.2275C110.83 17.184 110.227 17.0319 110.141 16.9015C110.055 16.7493 109.969 15.3366 109.969 13.7499V10.8809H104.378V13.6195ZM184.312 11.0114C184.226 11.0983 184.162 12.4676 184.162 14.0542C184.162 17.1405 184.14 17.184 182.957 17.184C182.42 17.184 182.42 17.2057 182.484 18.8576C182.549 20.5094 182.57 20.5529 183.129 20.6181C183.431 20.6616 183.796 20.8137 183.904 20.9441C184.033 21.0963 184.162 23.7262 184.226 27.0733C184.291 30.29 184.398 33.2242 184.484 33.572C184.742 34.5283 186.076 35.7455 187.344 36.1584C188.764 36.6366 192.377 36.6801 192.742 36.2236C192.914 36.028 192.979 35.2456 192.936 34.1154L192.871 32.2896L192.119 32.1592C191.301 32.0288 190.377 31.5941 190.14 31.2246C190.054 31.0942 189.968 28.7251 189.968 25.9648C189.968 20.2921 189.839 20.6616 191.71 20.6616C192.936 20.6616 193.043 20.4442 192.936 18.4664L192.871 17.2927L191.473 17.184L190.076 17.0753L189.968 14.0325L189.861 10.9896L187.151 10.9244C185.667 10.9027 184.398 10.9461 184.312 11.0114ZM93.7331 16.6624C92.6793 16.9449 91.4536 17.6622 90.6364 18.5098C89.6471 19.5531 89.3891 19.4879 89.2815 18.1621L89.217 17.2927H83.8408V36.4192L86.5504 36.4627C89.217 36.5279 89.2815 36.5062 89.4106 36.028C89.4751 35.7672 89.5396 33.0069 89.5396 29.8771C89.5396 23.6827 89.5611 23.5088 90.8299 22.2917C91.389 21.7483 91.6901 21.6396 92.8944 21.5744L94.2922 21.4875L95.1309 22.3786C96.1201 23.4219 96.0126 22.4221 96.0986 31.4203C96.1201 33.8111 96.1416 35.9193 96.1632 36.1367C96.2062 36.441 96.5502 36.4844 98.9588 36.441L101.69 36.4192V21.1615L101.066 19.9226C99.991 17.7708 98.3352 16.7493 95.7976 16.6189C94.8944 16.5972 93.9696 16.5972 93.7331 16.6624ZM120.614 16.6624C118.292 17.2927 117.174 17.923 115.733 19.3575C113.797 21.3353 112.916 23.6392 112.916 26.7473C112.937 32.2027 116.313 36.2454 121.303 36.7235C125.561 37.1365 128.851 35.8759 130.958 33.0286C131.259 32.6157 131.905 31.2898 131.905 31.0508C131.905 30.9638 130.657 30.8769 129.152 30.8769H126.399L125.754 31.5507C125.001 32.3331 123.948 32.833 122.98 32.833C122.012 32.833 120.528 32.1375 119.84 31.3985C119.324 30.8117 118.571 29.1164 118.571 28.5295C118.571 28.3339 120.141 28.2687 125.195 28.2687C128.829 28.2687 131.905 28.1818 132.055 28.0948C132.378 27.8775 132.077 24.4217 131.603 23.1611C130.636 20.5312 128.808 18.3142 126.958 17.5318C126.421 17.3144 125.797 17.0319 125.582 16.9232C125.13 16.6841 121.303 16.4885 120.614 16.6624ZM124.808 21.4223C125.647 22.0091 126.378 23.4001 126.27 24.1826C126.206 24.6825 126.163 24.6825 122.528 24.7477C118.335 24.8129 118.313 24.7912 118.98 23.2263C119.453 22.1395 120.399 21.1615 121.281 20.8789C122.292 20.5529 123.926 20.8137 124.808 21.4223ZM152.442 16.6624C149.947 17.3362 148.205 18.4446 146.85 20.1617C146.313 20.8572 145.883 21.5092 145.883 21.6396C145.883 21.7483 145.732 22.1395 145.539 22.509C145.345 22.8568 145.066 23.9435 144.915 24.9216C144.162 29.5728 146.227 33.9197 150.098 35.8759L151.582 36.6366H154.7C157.926 36.6366 158.205 36.5714 160.184 35.5064C161.624 34.7239 163.99 31.6811 163.624 31.0725C163.538 30.9638 162.313 30.8769 160.872 30.8769H158.227L157.689 31.5072C155.539 33.9632 151.517 32.7026 150.657 29.2902C150.528 28.8338 150.528 28.4426 150.635 28.3557C150.743 28.2905 153.818 28.247 157.495 28.2687C162.743 28.2687 164.162 28.2252 164.184 28.0079C164.377 25.2911 163.087 21.2701 161.474 19.5314C160.571 18.5533 159.001 17.4666 158.227 17.271C157.883 17.184 157.495 17.0319 157.345 16.9232C157.044 16.6841 153.108 16.4885 152.442 16.6624ZM155.797 20.9006C156.764 21.2484 157.883 22.4655 158.055 23.4001C158.313 24.8129 158.334 24.8129 154.334 24.7477C150.743 24.6825 150.721 24.6825 150.657 24.1826C150.571 23.574 151.324 22.0743 151.969 21.5092C152.893 20.7268 154.506 20.466 155.797 20.9006ZM171.151 16.6624C166.743 17.7274 165.151 19.314 165.13 22.6177C165.13 26.1822 166.893 27.6819 172.119 28.6165C175.71 29.2468 176.742 29.8119 176.699 31.1812C176.678 32.1592 176.011 32.7895 174.678 33.0721C173.001 33.4416 171.689 33.0286 170.635 31.8332L169.796 30.8769H167.194C165.087 30.8769 164.592 30.9421 164.592 31.1812C164.592 31.8115 165.452 33.4633 166.162 34.2892C166.829 35.0065 167.345 35.3542 169.366 36.3323C169.56 36.441 170.614 36.6148 171.667 36.7453C173.624 36.9843 177.022 36.767 177.882 36.3323C178.076 36.2454 178.635 35.9628 179.108 35.7455C180.334 35.1586 181.495 33.8328 181.925 32.5722C182.398 31.1377 182.269 29.1381 181.603 27.7471C180.807 26.117 178.699 24.9433 175.56 24.3782C171.517 23.661 171.452 23.6392 170.807 23.0089C170.033 22.2047 170.033 21.9222 170.807 21.0528C171.431 20.3573 171.474 20.3355 173.194 20.3355C174.915 20.3355 174.958 20.3573 175.581 21.0528C175.925 21.444 176.205 21.9004 176.205 22.0743C176.205 22.3351 176.656 22.4003 178.893 22.4003C181.861 22.4003 181.775 22.4655 181.259 20.9224C180.312 18.1838 177.882 16.7928 173.839 16.6406C172.592 16.5972 171.388 16.5972 171.151 16.6624ZM142.549 17.1188C141.603 17.4448 140.291 18.5316 139.883 19.314C139.474 20.0965 139.109 19.7704 139.001 18.4664L138.894 17.2927H133.517L133.453 26.4213C133.431 31.442 133.453 35.7672 133.517 36.0497C133.625 36.5279 133.689 36.5279 136.27 36.4844C137.754 36.4627 138.958 36.3323 139.044 36.2019C139.13 36.0932 139.216 33.7893 139.216 31.0942C139.216 26.8342 139.259 26.0735 139.625 25.1172C140.377 23.1393 141.99 21.9656 144.012 21.9656C144.571 21.9656 144.808 21.857 144.872 21.5744C145.023 20.9441 145.044 18.0099 144.915 17.3579C144.786 16.8363 144.678 16.7493 144.098 16.7711C143.711 16.7928 143.023 16.9449 142.549 17.1188ZM76.314 17.4448C76.2495 17.597 76.228 21.8787 76.2495 26.9646L76.314 36.2019L78.8731 36.3106C80.4215 36.3758 81.5397 36.3323 81.7118 36.2019C81.9483 36.028 82.0128 34.1806 82.0128 26.7908C82.0344 21.7483 81.9698 17.51 81.9053 17.4014C81.6903 17.0753 76.4215 17.1188 76.314 17.4448Z" fill="#B8C2D5"/>
</svg>
