<svg width="190" height="45" viewBox="0 0 190 45" fill="none" xmlns="http://www.w3.org/2000/svg">
<path d="M44.709 22.1963C44.709 34.3918 34.8312 44.2695 22.6357 44.2695C10.4403 44.2695 0.5625 34.3918 0.5625 22.1963C0.5625 10.0008 10.4403 0.123047 22.6357 0.123047C34.8312 0.123047 44.709 10.0008 44.709 22.1963Z" fill="#B8C2D5"/>
<path d="M25.5789 22.1968H19.3248V15.5748H25.5789C27.3999 15.5748 28.8899 17.0647 28.8899 18.8858C28.8899 20.7068 27.3999 22.1968 25.5789 22.1968ZM25.5789 11.1602H14.9102V33.2334H19.3248V26.6114H25.5789C29.8464 26.6114 33.3045 23.1533 33.3045 18.8858C33.3045 14.6183 29.8464 11.1602 25.5789 11.1602Z" fill="white"/>
<path d="M67.9036 19.4926C67.9036 18.2786 66.9655 17.5428 65.7515 17.5428H62.4957V21.4241H65.7515C66.9655 21.4241 67.9036 20.6883 67.9036 19.4926ZM59.4238 29.5544V14.8389H66.193C69.3384 14.8389 71.0491 16.9542 71.0491 19.4926C71.0491 22.0127 69.32 24.128 66.193 24.128H62.5141V29.5544H59.4238Z" fill="#B8C2D5"/>
<path d="M72.9062 29.5547V18.8308H75.6654V20.2471C76.4196 19.3458 77.7072 18.5732 79.0132 18.5732V21.2588C78.8108 21.222 78.5717 21.2036 78.259 21.2036C77.3393 21.2036 76.1253 21.7187 75.6838 22.3993V29.5731H72.9062V29.5547Z" fill="#B8C2D5"/>
<path d="M88.2692 24.0548C88.2692 22.4361 87.3127 21.0197 85.5836 21.0197C83.8729 21.0197 82.9164 22.4361 82.9164 24.0548C82.9164 25.7103 83.8729 27.1082 85.5836 27.1082C87.3127 27.1082 88.2692 25.6919 88.2692 24.0548ZM80.0469 24.0548C80.0469 21.0933 82.1254 18.5732 85.5652 18.5732C89.0417 18.5732 91.1203 21.0933 91.1203 24.0548C91.1203 27.0163 89.0417 29.5547 85.5652 29.5547C82.1254 29.5547 80.0469 27.0163 80.0469 24.0548Z" fill="#B8C2D5"/>
<path d="M100.386 25.9123V22.215C99.9266 21.516 98.9333 21.0194 98.032 21.0194C96.4501 21.0194 95.3648 22.2518 95.3648 24.0544C95.3648 25.8755 96.4501 27.1079 98.032 27.1079C98.9333 27.1079 99.9266 26.6113 100.386 25.9123ZM100.386 29.5544V27.9541C99.5587 29.0025 98.4367 29.5544 97.149 29.5544C94.5187 29.5544 92.5137 27.5678 92.5137 24.0544C92.5137 20.6515 94.4819 18.5729 97.149 18.5729C98.3815 18.5729 99.5587 19.088 100.386 20.1732V14.8389H103.164V29.5544H100.386Z" fill="#B8C2D5"/>
<path d="M112.95 29.554V27.9721C112.233 28.7446 110.982 29.554 109.271 29.554C106.972 29.554 105.887 28.3032 105.887 26.2614V18.8301H108.646V25.1761C108.646 26.6293 109.4 27.1075 110.577 27.1075C111.644 27.1075 112.49 26.5189 112.969 25.9119V18.8301H115.728V29.554H112.95Z" fill="#B8C2D5"/>
<path d="M117.77 24.0548C117.77 20.8541 120.106 18.5732 123.325 18.5732C125.477 18.5732 126.764 19.5114 127.463 20.4679L125.661 22.1601C125.164 21.4244 124.41 21.0381 123.453 21.0381C121.779 21.0381 120.621 22.2521 120.621 24.0732C120.621 25.8942 121.798 27.1266 123.453 27.1266C124.41 27.1266 125.164 26.6852 125.661 25.9862L127.463 27.6785C126.764 28.635 125.477 29.5915 123.325 29.5915C120.106 29.5547 117.77 27.2738 117.77 24.0548Z" fill="#B8C2D5"/>
<path d="M129.836 26.6665V21.2217H128.107V18.8121H129.836V15.9609H132.596V18.8305H134.711V21.2401H132.596V25.9491C132.596 26.6297 132.945 27.1263 133.552 27.1263C133.957 27.1263 134.362 26.9792 134.509 26.7952L135.097 28.8922C134.693 29.2601 133.957 29.5728 132.798 29.5728C130.848 29.5544 129.836 28.5611 129.836 26.6665Z" fill="#B8C2D5"/>
<path d="M152.334 29.5544V23.2083H145.509V29.5544H142.438V14.8389H145.509V20.5227H152.334V14.8389H155.442V29.5544H152.334Z" fill="#B8C2D5"/>
<path d="M165.284 29.554V27.9721C164.567 28.7446 163.316 29.554 161.605 29.554C159.306 29.554 158.221 28.3032 158.221 26.2614V18.8301H160.98V25.1761C160.98 26.6293 161.734 27.1075 162.911 27.1075C163.978 27.1075 164.824 26.5189 165.303 25.9119V18.8301H168.062V29.554H165.284Z" fill="#B8C2D5"/>
<path d="M177.832 29.5547V22.9695C177.832 21.5163 177.078 21.0197 175.9 21.0197C174.815 21.0197 173.987 21.6267 173.509 22.2337V29.5547H170.75V18.8308H173.509V20.1736C174.19 19.401 175.477 18.5732 177.17 18.5732C179.487 18.5732 180.591 19.8792 180.591 21.9026V29.5547H177.832Z" fill="#B8C2D5"/>
<path d="M183.897 26.6665V21.2217H182.168V18.8121H183.897V15.9609H186.656V18.8305H188.772V21.2401H186.656V25.9491C186.656 26.6297 187.006 27.1263 187.613 27.1263C188.017 27.1263 188.422 26.9792 188.569 26.7952L189.158 28.8922C188.753 29.2601 188.017 29.5728 186.859 29.5728C184.909 29.5544 183.897 28.5611 183.897 26.6665Z" fill="#B8C2D5"/>
</svg>
