<svg width="141" height="47" viewBox="0 0 141 47" fill="none" xmlns="http://www.w3.org/2000/svg">
<path d="M134.765 8.90352H128.628V0.311035H115.151L108.953 8.90352H97.9401L94.2576 12.586V8.90352H85.6651V0.311035H58.6602V8.90352H20.6691L14.4703 0.311035H0.967773V29.771L18.1527 46.956H35.3377V42.046L40.2477 46.956H73.3902V42.046L78.3002 46.956H94.2576V42.046L99.1676 46.956H129.855L140.903 35.9085V15.041L134.765 8.90352ZM21.8352 21.1785H13.2428V23.6335H21.8352V33.4535H8.33276L3.42277 28.5435V2.76603H13.2428V11.3585H21.8352V21.1785ZM58.6602 33.4535H29.2002L24.2902 28.5435V11.3585H34.1102V23.6335H36.5652V11.3585H46.3852V23.6335H48.8402V11.3585H58.6602V33.4535ZM70.9352 33.4535H61.1152V11.3585H70.9352V33.4535ZM70.9352 8.90352H61.1152V2.76603H70.9352V8.90352ZM91.8026 21.1785H83.2102V23.6335H91.8026V33.4535H78.3002L73.3902 28.5435V2.76603H83.2102V11.3585H91.8026V21.1785ZM113.898 21.1785H104.078V23.6335H113.898V33.4535H99.1676L94.2576 28.5435V16.2685L99.1676 11.3585H113.898V21.1785ZM138.448 33.4535H128.628V21.1785H126.173V33.4535H116.353V2.76603H126.173V11.3585H133.538L138.448 16.2685V33.4535Z" fill="#B8C2D5"/>
</svg>
