<svg width="160" height="41" viewBox="0 0 160 41" fill="none" xmlns="http://www.w3.org/2000/svg">
<path d="M52.0633 15.8293C52.0633 12.9704 49.2833 9.93411 44.4725 9.93411C39.0702 9.93411 33.1356 13.8971 32.2286 21.8034C31.3019 29.7885 36.2705 33.3375 41.2784 33.3375C46.2864 33.3375 48.9087 31.3855 51.5901 28.783C49.2833 25.8847 46.3061 27.2254 45.7343 27.5211C45.1034 27.8366 44.295 28.2704 42.6389 28.2704C40.7066 28.2704 38.735 27.4028 38.735 23.7947C51.1169 22.5723 52.0633 18.6882 52.0633 15.8293ZM45.9315 16.3025C45.8526 17.1897 45.4977 18.7079 39.2279 19.5557C40.5489 14.8632 43.0726 14.5083 44.2359 14.5083C45.3203 14.5083 46.0104 15.3561 45.9315 16.3025ZM24.9533 17.0714C24.9533 17.0714 22.2915 25.4312 22.0747 26.1213C21.9958 25.4115 20.0439 10.4073 20.0439 10.4073C15.5091 10.4073 13.084 13.6408 11.8024 17.0517C11.8024 17.0517 8.56894 25.4312 8.29291 26.141C8.27319 25.4903 7.8 17.1503 7.8 17.1503C7.52397 12.9704 3.69899 10.427 0.603516 10.427L4.34963 33.16C9.10128 33.1403 11.6644 29.9265 13.0051 26.5156C13.0051 26.5156 15.864 19.1219 15.9823 18.7868C16.002 19.1022 18.0328 33.16 18.0328 33.16C22.8042 33.16 25.3673 30.1434 26.7474 26.8508L33.4313 10.427C28.7191 10.427 26.2348 13.6408 24.9533 17.0714ZM69.5714 9.89468C66.6337 9.89468 64.386 11.4917 62.4933 13.838V13.8182L64.1889 0.154785C60.285 0.154785 57.1107 3.546 56.4995 8.5934L53.542 32.9826C55.7897 32.9826 58.1754 32.3319 59.4569 30.6758C60.6005 32.1545 62.3158 33.3375 64.8592 33.3375C71.4445 33.3375 75.9595 25.6875 75.9595 18.5107C75.9201 11.9649 72.7458 9.89468 69.5714 9.89468ZM68.9602 21.6259C68.2702 25.6284 66.0422 28.3492 63.8931 28.3492C61.7243 28.3492 60.7976 27.3831 60.7976 27.3831C61.2117 23.8736 61.468 21.7245 62.2567 19.8712C63.0453 18.0178 64.9184 15.0604 66.8703 15.0604C68.7828 15.0604 69.6503 17.6038 68.9602 21.6259ZM92.403 10.427H87.8091L87.8288 10.1904C88.1443 7.19353 88.8541 5.61622 91.2003 5.35991C92.7973 5.20218 93.5071 4.37409 93.6846 3.46714C93.8226 2.75735 94.2564 0.2928 94.2564 0.2928C85.0291 0.233651 82.1308 4.21636 81.3816 10.289L81.3618 10.427H81.2633C79.7648 10.427 78.1086 12.1226 77.8326 14.2717L77.734 15.0604H80.8098L78.2269 36.3935L77.4383 40.2185C77.5369 40.2185 77.6552 40.2382 77.7537 40.2382C82.0716 40.0805 84.8319 36.6695 85.4431 31.7207L87.4542 15.0604H88.8935C90.3131 15.0604 91.9693 13.6408 92.265 11.2748L92.403 10.427ZM116.299 10.0327C110.996 10.0327 105.988 13.9365 104.45 20.0683C102.912 26.2001 105.238 33.4558 113.046 33.4558C120.834 33.4558 125.329 25.9044 125.329 19.6149C125.329 13.3648 121.09 10.0327 116.299 10.0327ZM118.448 21.4288C118.172 24.2088 116.95 28.4281 113.598 28.4281C110.227 28.4281 110.7 23.499 111.035 21.1527C111.39 18.6488 112.79 15.0801 115.806 15.0801C118.508 15.0801 118.764 18.2939 118.448 21.4288ZM151.532 17.0714C151.532 17.0714 148.871 25.4312 148.654 26.1213C148.575 25.4115 146.623 10.4073 146.623 10.4073C142.088 10.4073 139.663 13.6408 138.382 17.0517C138.382 17.0517 135.148 25.4312 134.872 26.141C134.852 25.4903 134.379 17.1503 134.379 17.1503C134.103 12.9704 130.278 10.427 127.183 10.427L130.909 33.16C135.661 33.1403 138.224 29.9265 139.565 26.5156C139.565 26.5156 142.423 19.1219 142.522 18.7868C142.542 19.1022 144.573 33.16 144.573 33.16C149.344 33.16 151.907 30.1434 153.287 26.8508L159.971 10.427C155.279 10.427 152.794 13.6408 151.532 17.0714ZM96.7406 0.2928L92.8762 31.4644L92.0875 35.3091C92.1861 35.3091 92.3044 35.3288 92.403 35.3288C96.5632 35.2697 99.5206 31.6221 100.073 27.0282L102.301 9.14546C102.971 3.68402 99.7178 0.2928 96.7406 0.2928Z" fill="#B8C2D5"/>
</svg>
