<svg width="166" height="37" viewBox="0 0 166 37" fill="none" xmlns="http://www.w3.org/2000/svg">
<path d="M28.1988 36.9495L17.4215 36.7502C13.932 36.6809 10.4339 36.8195 7.01297 36.1003C1.80869 35.0258 1.44002 29.7573 1.0542 25.338C0.522627 19.1249 0.728398 12.7993 1.73153 6.63821C2.2974 3.18075 4.52658 1.1184 7.97323 0.8931C19.6078 0.0785601 31.3196 0.173879 42.9285 0.555153C44.1545 0.589814 45.3892 0.780451 46.5981 0.997084C52.5654 2.05425 52.7112 8.02466 53.097 13.0505C53.4828 18.1284 53.3199 23.2323 52.5826 28.2755C51.991 32.4522 50.8592 35.953 46.0836 36.2909C40.0992 36.7329 34.2518 37.0882 28.2502 36.9755C28.2502 36.9495 28.2159 36.9495 28.1988 36.9495ZM21.8627 26.3778C26.3725 23.7609 30.7966 21.1873 35.2807 18.5877C30.7623 15.9708 26.3468 13.3972 21.8627 10.7976V26.3778Z" fill="#B8C2D5"/>
<path d="M139.541 32.2007C139.335 33.0499 139.155 33.7171 138.975 34.4277H134.756V1.54248H139.678V13.6741C139.935 13.3448 140.064 13.2061 140.175 13.0588C141.015 11.889 142.104 11.1264 143.51 10.8318C145.748 10.3899 147.66 11.3864 148.337 13.5614C148.775 14.9132 149.058 16.3603 149.092 17.7728C149.16 21.4036 149.109 25.0257 148.98 28.6565C148.929 29.7657 148.595 30.9009 148.174 31.9407C146.794 35.3722 142.284 35.8922 140.046 32.9199C139.909 32.738 139.781 32.5386 139.541 32.2007ZM139.781 23.154V29.1678C139.781 30.147 140.295 30.7449 141.264 30.9702C142.216 31.1955 142.987 30.8229 143.373 29.9304C143.536 29.5577 143.699 29.1678 143.707 28.7779C143.802 25.1037 143.888 21.4296 143.913 17.7468C143.913 17.0622 143.75 16.3517 143.545 15.6844C143.159 14.4799 142.096 14.1247 141.05 14.8266C140.261 15.3638 139.781 16.1264 139.781 17.1402V23.154ZM126.406 11.2997H131.558V34.445H127.537C127.392 33.5698 127.246 32.6686 127.074 31.6115C126.8 32.0187 126.637 32.2787 126.466 32.5386C125.128 34.4884 123.233 35.1556 120.996 34.8003C119.084 34.4884 117.935 32.9979 117.678 30.5543C117.6 29.8264 117.566 29.0898 117.566 28.3619C117.549 22.946 117.566 17.5128 117.566 12.0969V11.2824H122.779V12.2269C122.779 17.4608 122.762 22.6861 122.796 27.92C122.796 28.6652 122.873 29.4364 123.002 30.1817C123.148 30.9442 123.696 31.2215 124.434 31.1695C125.625 31.0742 126.449 30.1817 126.449 28.9858V12.3223C126.406 11.9843 126.406 11.6723 126.406 11.2997ZM90.9274 11.2824H96.106V12.2616C96.106 17.4695 96.0888 22.6687 96.1231 27.8593C96.1231 28.6046 96.1917 29.3758 96.346 30.1037C96.5432 30.9615 97.0405 31.2388 97.8893 31.1262C99.0639 30.9615 99.7755 30.1383 99.7841 28.9338V12.3569V11.3171H104.937V34.445H100.933C100.787 33.5872 100.641 32.7033 100.453 31.5855C100.196 31.9754 100.05 32.2007 99.9041 32.4347C98.5666 34.419 96.689 35.1469 94.3998 34.7917C92.565 34.5144 91.4418 33.1452 91.0989 30.9009C91.0046 30.199 90.936 29.5058 90.936 28.8039C90.9188 23.18 90.9188 17.5302 90.9188 11.9063L90.9274 11.2824ZM88.2696 23.6393C88.2524 24.4192 88.201 25.199 88.1581 25.9789C87.9609 28.3186 87.8666 31.6374 85.9975 33.3445C84.8057 34.419 83.2968 34.809 81.7363 34.861C81.0419 34.8783 80.3388 34.8783 79.6443 34.783C76.3606 34.2804 74.8345 32.8159 74.2857 29.1678C73.6599 24.9564 73.6084 20.6757 74.3543 16.4643C75.126 12.1056 77.7838 10.5632 81.9164 10.8491C85.7746 11.1264 87.4979 13.6827 87.9523 17.3222C88.201 19.4106 88.321 21.5249 88.2696 23.6393ZM83.0224 22.8421C83.0224 21.3603 83.0567 19.8698 83.0053 18.388C82.971 17.5302 82.8595 16.6636 82.6795 15.8144C82.4737 14.8352 81.8564 14.3673 81.0847 14.3846C80.3302 14.4019 79.7987 14.8699 79.5243 15.7797C79.43 16.1177 79.3271 16.4643 79.3271 16.8023C79.3271 19.1246 79.31 21.4556 79.2928 23.7779C79.2757 25.9443 79.0013 28.2146 79.6786 30.2856C79.8844 30.9182 80.416 31.2648 81.1105 31.2648C81.7878 31.2648 82.2336 30.9269 82.4823 30.3203C82.6795 29.8524 82.8509 29.3411 82.8509 28.8385C82.9109 26.8455 83.0224 24.8438 83.0224 22.8421ZM66.7237 18.4834C67.1781 16.239 67.6068 14.0467 68.0783 11.8457C68.6699 9.04673 69.3301 6.2478 69.9131 3.4402C70.0589 2.75564 70.3332 2.59099 70.9763 2.60833C72.3566 2.66032 73.7627 2.62566 75.2374 2.62566C74.7573 4.41073 74.2857 6.10915 73.8228 7.78157C72.3567 13.0328 70.8905 18.3014 69.4416 23.57C69.3301 23.9772 69.2787 24.4192 69.2787 24.8524C69.2615 27.7293 69.2787 30.5976 69.2787 33.4745V34.4104H64.2459C64.2287 34.1504 64.1944 33.8904 64.1944 33.6305C64.1944 32.0014 64.0658 30.3636 64.2116 28.7519C64.5803 24.8784 63.3628 21.3169 62.3768 17.7121C61.0736 12.9462 59.7532 8.16285 58.45 3.39688C58.3814 3.17158 58.3557 2.92895 58.2871 2.65165H63.4228C64.5031 7.91156 65.592 13.1715 66.7237 18.4834ZM165.193 24.5231H156.517C156.611 26.2822 156.645 27.9546 156.825 29.6097C156.954 30.7622 157.58 31.2562 158.566 31.2648C159.595 31.2822 160.195 30.7622 160.435 29.6184C160.512 29.2458 160.563 28.8732 160.598 28.4919C160.632 28.154 160.649 27.79 160.675 27.3047C162.141 27.3827 163.573 27.4694 164.988 27.53C165.811 29.9997 164.327 33.1712 161.832 34.1504C159.869 34.9303 157.854 34.9303 155.848 34.3324C154.365 33.8905 153.259 32.9373 152.761 31.4728C152.298 30.1037 151.861 28.6739 151.767 27.2441C151.51 23.7173 151.415 20.1558 151.947 16.6203C152.041 16.031 152.204 15.4678 152.384 14.8959C153.104 12.5389 154.673 11.0918 157.1 10.8491C158.42 10.7191 159.783 10.7711 161.086 10.9964C163.196 11.3691 164.319 12.9028 164.808 14.9132C165.03 15.8577 165.193 16.8283 165.228 17.7901C165.236 19.9998 165.193 22.1921 165.193 24.5231ZM160.263 21.4816C160.263 19.7398 160.281 18.1021 160.246 16.4556C160.246 16.0657 160.101 15.6584 159.955 15.2858C159.663 14.5579 159.055 14.3586 158.326 14.3586C157.597 14.3586 157.134 14.7312 156.954 15.3985C156.405 17.4002 156.585 19.4452 156.602 21.4989C157.914 21.4816 159.106 21.4816 160.263 21.4816Z" fill="#B8C2D5"/>
<path d="M108.916 6.87253H103.814V2.6958H119.041V6.84654H113.974V34.4112H108.924L108.916 6.87253Z" fill="#B8C2D5"/>
</svg>
